<?xml version="1.0" standalone="no"?>
<!DOCTYPE svg PUBLIC "-//W3C//DTD SVG 1.1//EN" "http://www.w3.org/Graphics/SVG/1.1/DTD/svg11.dtd">
<svg xmlns="http://www.w3.org/2000/svg">
<metadata>Copyright (C) 2018 by original authors @ fontello.com</metadata>
<defs>
<font id="fontello" horiz-adv-x="1000" >
<font-face font-family="fontello" font-weight="400" font-stretch="normal" units-per-em="1000" ascent="850" descent="-150" />
<missing-glyph horiz-adv-x="1000" />
<glyph glyph-name="010-departures" unicode="&#xe800;" d="M965 666c-69 40-147 19-200-6l-159-74-274 138-164-7 227-230-145-68-150 57-100-47 91-113c-10-11-18-27-11-44 11-22 41-33 91-33 10 0 21 0 33 1 55 4 115 18 152 36l569 265c49 23 74 47 75 74 1 14-5 34-35 51z m-57-87l-570-266c-31-15-83-27-132-31-50-5-77 1-86 5 2 3 6 7 12 12l15 13-82 102 37 17 150-57 213 101-202 204 60 3 282-142 177 83c65 30 120 33 162 8l0 0c11-7 15-12 15-14 0 0-1-15-51-38z" horiz-adv-x="1000" />

<glyph glyph-name="013-delivery-packages-on-a-trolley" unicode="&#xe801;" d="M66 678c-19 56 12 117 68 136s118-12 137-69l212-643c-20 5-41 6-62 2l-205 623c-9 26-37 41-63 32-27-9-41-37-32-63 5-15-4-32-19-37-15-5-31 3-36 19z m836-505l-348-115c12-14 22-30 28-49 1-1 1-2 1-2l337 111c15 5 23 21 18 36-5 16-21 24-36 19z m-347-173c20-60-13-125-73-144-59-20-124 12-143 72-20 60 12 124 72 144 60 20 124-13 144-72z m-54-18c-10 30-42 46-72 36-30-10-46-42-36-72 10-30 42-46 72-36 29 10 46 42 36 72z m313 627l118-358c3-7-2-15-9-18l-372-122c-7-3-16 1-18 9l-118 358c-3 7 1 15 9 18l372 123c7 2 15-2 18-10z m-49-208l-127 70-60-131 40-19 26 57 47-142 45 15-47 142 55-30 21 38z m-111 214l-75 229c-2 5-7 7-12 6l-64-22-1 0 0 0-35-11 29-86-39-12-28 85-34-11 0-1-1 0-64-21c-5-1-8-7-6-12l75-228c2-5 7-8 12-6l238 78c4 2 7 7 5 12z" horiz-adv-x="1000" />

<glyph glyph-name="012-car" unicode="&#xe802;" d="M211 265c-15 0-27-13-27-27 0-15 12-28 27-28 15 0 27 13 27 28 0 14-12 27-27 27z m721 207l-190 77c-32 13-65 19-100 19h-116c-42 0-84-10-121-29l-173-88-124-18c-30-4-57-19-77-42-20-23-31-53-31-83v-73c0-11 9-20 20-20h88c5-20 15-39 30-53 19-19 46-30 73-30 28 0 54 11 74 30 15 15 25 33 29 53h367c4-20 14-39 29-53 20-19 46-30 73-30 28 0 54 11 74 30 15 14 25 33 29 53h94c11 0 20 9 20 20v137c0 45-27 84-68 100z m-206 39l148-59h-111l-49 64c4-2 8-3 12-5z m-181 16h97c4 0 8 0 11 0l58-75h-166v75z m-122-24c25 12 53 20 81 23v-74h-180l99 51z m-312-111c-9-28-34-50-64-53 11 27 35 48 64 53z m100-219c-36 0-64 29-64 65 0 35 28 64 64 64s65-29 65-64c0-36-29-65-65-65z m572 0c-35 0-64 29-64 65 0 35 29 64 64 64 36 0 65-29 65-64 0-36-29-65-65-65z m176 82h-72c-8 50-52 88-104 88-52 0-95-38-103-88h-365c-9 50-52 88-104 88-52 0-95-38-104-88h-66v43c58 1 106 44 113 100l86 13h513c0 0 0 0 0 0 0 0 0 0 0 0h129v-27c0-37 30-67 68-67h9v-62z m0 102h-9c-15 0-27 13-27 27v27h24c8-11 12-24 12-39v-15z m-176-92c-15 0-27-13-27-27 0-15 12-28 27-28 15 0 28 13 28 28 0 14-13 27-28 27z m-216 89h-136c-11 0-20-9-20-21s9-20 20-20h136c11 0 20 9 20 20s-9 21-20 21z m-356-89c-15 0-27-13-27-27 0-15 12-28 27-28 15 0 27 13 27 28 0 14-12 27-27 27z m572 0c-15 0-27-13-27-27 0-15 12-28 27-28 15 0 28 13 28 28 0 14-13 27-28 27z m-572 0c-15 0-27-13-27-27 0-15 12-28 27-28 15 0 27 13 27 28 0 14-12 27-27 27z m572 0c-15 0-27-13-27-27 0-15 12-28 27-28 15 0 28 13 28 28 0 14-13 27-28 27z" horiz-adv-x="1000" />

<glyph glyph-name="018-champagne" unicode="&#xe803;" d="M494 796l-199 54c0 0-1 0-1 0-1 0-1 0-1 0 0 0-1 0-1 0 0 0 0 0-1 0 0 0 0 0 0 0 0 0-1 0-2 0 0 0 0 0 0 0-2 0-3-1-5-2 0 0 0 0 0 0-1 0-1-1-2-1 0 0 0 0 0 0-1-1-2-2-3-4 0 0 0 0 0 0-1 0-1-1-2-2 0 0 0 0 0 0 0-1 0-2 0-2 0 0 0 0 0 0l-16-60c-3-8 2-17 10-19 2 0 3-1 4-1 7 0 14 5 15 12l12 45 170-46-45-167h-182l29 108c1 4 1 8-1 12-2 3-6 6-10 7-1 0-2 1-4 1-7 0-13-5-14-12l-34-126c-1-1-1-2-1-3l-19-70c0 0 0 0 0 0-8-30-4-62 12-90 13-23 33-40 57-50l-74-278-65-38-53 15c-9 2-17-3-19-11-3-8 2-17 11-19l238-64c2-1 3-1 4-1 7 0 13 5 15 12 3 8-2 16-11 19l-53 14-37 65 74 278c5-1 11-1 16-1 20 0 41 5 59 16 27 16 47 41 55 72 0 0 0 0 0 0l85 318c3 9-2 17-11 19z m-331-743l30 17 18-30-48 13z m227 414c0 0 0 0 0 0-6-23-20-42-41-53-20-12-43-15-66-9-23 6-41 20-53 41-12 20-15 44-9 66 0 0 0 0 0 0l16 60h181l-28-105z m561-534c-2 9-10 14-18 11l-54-14-65 37-74 279c54 22 84 82 69 140 0 0 0 0 0 0l-59 219c-2 7-8 11-15 11-1 0-2 0-4 0-4-1-7-4-9-7-2-4-3-8-2-12l15-56h-181l-25 95 169 45 6-24c2-7 8-12 15-12 2 0 3 0 4 1 9 2 13 10 11 19l-10 39c0 0 0 0 0 0-1 1-1 2-1 3 0 0 0 0 0 0-1 1-1 1-2 2 0 0 0 0 0 0-1 1-2 3-3 4 0 0 0 0 0 0-1 0-1 1-2 1 0 0 0 0 0 0-2 1-3 1-5 2 0 0 0 0 0 0-1 0-1 0-2 0 0 0 0 0 0 0 0 0 0 0 0 0-1 0-2 0-2 0 0 0 0 0-1 0 0 0-1-1-1-1 0 0 0 0 0 0 0 0 0 0 0 0l-199-53c-9-2-14-11-11-19l85-318c0 0 0 0 0 0 14-53 62-88 114-88 6 0 11 0 16 1l75-279-38-64-53-15c-9-2-13-10-11-19 2-6 8-11 15-11 1 0 2 0 4 0l179 48c0 0 0 0 0 0l60 16c8 3 13 11 10 19z m-341 400l0 0-48 177h182l35-132c0 0 0 0 0 0 13-47-15-95-62-107-47-13-95 15-107 62z m179-427l18 30 30-17-48-13z" horiz-adv-x="1000" />

<glyph glyph-name="017-tea-cup" unicode="&#xe804;" d="M216 311c0 11-9 20-20 20s-19-9-19-20 9-20 19-20 20 9 20 20z m0 0m57-212c9 6 12 18 6 27-20 32-37 70-50 114-3 10-14 16-24 13-10-3-16-14-13-24 14-47 32-89 54-124 6-9 18-12 27-6z m0 0m174 524c6-8 19-10 27-3 9 7 10 19 3 27-16 20-16 54 0 74 28 34 28 88 0 122-7 8-19 10-27 3-9-7-10-19-3-28 16-20 16-53 0-73-28-34-28-88 0-122z m0 0m117 0c7-8 19-10 27-3 9 7 10 19 3 27-15 20-15 54 0 74 28 34 28 88 0 122-6 8-19 10-27 3-8-7-10-19-3-28 16-20 16-53 0-73-27-34-27-88 0-122z m0 0m-234 0c6-8 19-10 27-3 8 7 10 19 3 27-16 20-16 54 0 74 27 34 27 88 0 122-7 8-19 10-27 3-9-7-10-19-3-28 15-20 15-53 0-73-28-34-28-88 0-122z m0 0m-329-625c0-10 9-19 20-19 11 0 21-8 25-19 16-58 69-110 131-110h531c62 0 115 53 131 110 4 11 14 19 25 19 11 0 20 9 20 19s-9 20-20 20h-194c9 10 18 23 28 39 81 0 153 31 208 90 52 56 86 135 94 221 7 70-48 130-118 130h-76c0 7 0 14 0 20 0 11-9 20-20 20h-687c-11 0-20-9-20-20 0-27 1-54 2-79 14-248 92-369 133-421h-193c-11 0-20-9-20-20z m803 441c0 6 0 13 1 20h77c47 0 84-40 80-87-13-127-93-262-241-275 7 13 14 27 20 42 52 9 97 37 128 81 29 40 48 94 54 156 2 23-16 44-41 44h-80c1 7 1 13 2 19z m-5-58h83c1 0 1 0 1 0 1-1 1-1 1-2-5-50-28-165-126-196 20 59 33 125 41 198z m-228 118h196c-1-7-1-13-1-19 0-7 0-14-1-21h-194z m-453-1h414v-39h-413c0 13 0 26-1 39z m434-199l58-73v-91h-117v91z m-430 121h410v-83l-74-92c-2-3-4-8-4-12v-117c0-11 9-20 20-20h156c11 0 19 9 19 20v117c0 4-1 9-4 12l-74 92v83h192c0-6-1-11-1-17-10-107-35-223-90-315-23-37-43-58-52-70h-355c-1 2-3 4-5 6-30 35-120 140-138 396z m683-441c-1-3-2-5-3-8-12-40-50-82-94-82h-531c-44 0-82 42-94 82-1 3-2 5-3 8z m0 0" horiz-adv-x="998" />

<glyph glyph-name="016-coffee-cup-1" unicode="&#xe805;" d="M892-12h-210c54 21 95 52 126 89 127 19 184 124 184 221 0 69-38 127-88 137 0 0 0 1 0 1 0 9-3 17-10 24-7 7-16 11-24 11h-793c-9 0-17-4-24-11-7-7-11-15-11-24 2-185 34-373 223-448h-212c-25 0-45-19-45-45 0-21 14-36 38-41l219-16c5 0 10-3 12-8 8-18 26-28 45-28h286c19 0 36 10 43 28 2 5 7 8 12 8l234 16h2c24 5 38 20 38 41 0 24-19 45-45 45z m12 410c30-10 52-51 52-100 0-67-31-148-117-177 1 2 3 5 4 7 48 83 58 183 61 270z m-827 38h793c-2-233-52-448-397-448s-395 215-396 448z m819-500l-231-15c-18-2-33-12-42-28-3-5-8-9-13-9h-288c-6 0-11 4-14 9-9 16-24 26-42 28l-215 15c-9 2-9 5-9 7 0 5 5 10 11 10h841c5 0 10-5 10-10 0-2 0-5-8-7z m-435 771c-26-26-39-52-39-79s13-56 39-83c4-4 7-5 12-5s9 1 12 5c7 7 7 17 0 24-19 21-29 40-29 59s10 38 29 55c26 24 40 52 40 79s-12 57-40 83c-7 7-17 7-24 0-7-7-7-17 0-24 19-21 30-40 30-59s-11-38-30-55z m150-79c0-28 14-56 40-83 3-4 7-5 12-5 3 0 9 1 10 5 7 7 7 17 0 24-19 21-29 40-29 59s10 38 29 55c28 24 42 52 42 79 0 29-12 57-40 83-7 7-17 7-24 0-7-7-7-17 0-24 19-21 29-40 29-59s-10-36-29-55c-26-26-40-52-40-79z m-362 0c0-28 14-56 40-83 3-4 7-5 12-5 3 0 9 1 10 5 7 7 7 17 0 24-19 21-29 40-29 59s10 38 29 55c28 24 42 52 42 79 0 29-12 57-40 83-7 7-17 7-24 0-7-7-7-17 0-24 19-21 29-40 29-59s-10-36-29-55c-26-26-40-52-40-79z m124-554c-122 21-184 90-210 228-2 8-12 15-21 14-8-2-15-13-14-21 28-154 102-231 238-255 2 0 2 0 4 0 8 0 15 5 17 13 2 11-5 19-14 21z" horiz-adv-x="1000" />

<glyph glyph-name="015-coffee-cup" unicode="&#xe806;" d="M981 447h-161v41c0 11-8 20-19 20h-422c-11 0-20-9-20-20 0-11 9-19 20-19h402v-150c0-132-70-254-183-321h-375c-114 67-184 189-184 321v150h131c11 0 20 8 20 19 0 11-9 20-20 20h-150c-11 0-20-9-20-20v-169c0-74 20-146 57-210 26-42 59-80 97-111h-134c-11 0-20-8-20-19 0-71 58-129 129-129h609c71 0 129 58 129 129 0 11-9 19-19 19h-182c36 29 66 63 91 101h55c104 0 188 85 188 189v139c0 11-9 20-19 20z m-155-488c-9-40-45-70-88-70h-609c-43 0-79 30-88 70h177 385 223z m-6 360v11h63v-42c0-40-32-71-71-71h-5c9 33 13 67 13 102z m141-31c0-83-67-150-149-150h-33c6 13 11 26 16 40h17c61 0 110 49 110 110v61c0 11-9 20-20 20h-82v39h141v-120z m-532 454l-10 13c-15 18-15 45 0 63 6 9 5 21-4 28-8 7-20 5-27-3-26-33-26-80 0-113l10-12c20-25 20-59 0-84l-10-13c-7-8-5-20 3-27 4-3 8-4 12-4 6 0 12 2 16 7l10 13c31 39 31 93 0 132z m108-44l-10 13c-15 19-15 45 0 63 7 9 5 21-3 28-9 7-21 5-28-3-26-33-26-80 0-113l11-12c19-25 19-59 0-83l-11-14c-6-8-5-20 3-27 4-3 8-4 13-4 5 0 11 2 15 7l10 13c31 39 31 93 0 132z m-216 0l-11 13c-14 19-15 45 0 63 7 9 6 21-3 28-8 7-21 5-27-3-26-33-26-80 0-113l10-12c20-25 20-59 0-83l-10-14c-7-8-6-20 3-27 3-3 8-4 12-4 6 0 11 2 15 7l11 13c31 39 30 93 0 132z m-27-196c-4 4-9 6-14 6s-10-2-14-6c-4-4-6-9-6-14s2-10 6-14c4-3 9-5 14-5s10 2 14 5c3 4 5 9 5 14 0 5-2 10-5 14z m413-164c-11 0-19-8-19-19 0-73-30-144-81-196-8-7-8-20 0-27 4-4 9-6 14-6 5 0 10 2 14 6 58 59 92 140 92 223 0 11-9 19-20 19z m-133-268c-5 10-17 13-27 8l0-1c-9-5-13-17-7-26 3-6 10-10 17-10 3 0 6 1 9 2l1 1c9 5 12 17 7 26z" horiz-adv-x="1000" />

<glyph glyph-name="019-champagne-and-two-glasses" unicode="&#xe807;" d="M795 127c-4 26-23 47-48 51-17 4-35-1-48-14-14 13-31 18-49 14-24-4-43-25-47-51-3-21-1-73 89-122 2-1 4-2 7-2l0 0 0 0c2 0 4 1 6 2 90 49 93 101 90 122z m-96-94c-47 28-73 61-68 89 2 15 12 26 25 29 12 2 23-4 31-17 4-7 12-9 19-5 2 1 4 3 5 5l0 0c8 13 19 19 31 17 13-3 23-14 25-29 4-28-21-61-68-89z m123 392c-62 111-64 189-64 190v141c6 2 10 7 10 13v67c0 8-7 14-14 14h-110c-8 0-14-6-14-14v-67c0-6 4-11 9-13v-141c0-1-1-79-64-190-39-70-38-171-38-177 0 0 0-345 0-345 0-29 24-53 53-53h217c30 0 54 24 54 53 0 0 0 345 0 345 0 6 1 107-39 177z m-155 330h63v-32h-63v32z m-9 67h82v-39h-82v39z m9-207v80h63v-80c0-3 1-66 45-160l-76-64-76 64c44 94 44 157 44 160z m140-737h-217c-14 0-25 11-25 25 0 0 0 0 0 0v66h51c9-26 42-45 83-45h0c40 0 74 19 82 45h51v-66c0 0 0 0 0 0 0-14-11-25-25-25z m-242 120v204h63c8 0 14 7 14 15 0 14 23 31 57 31h0c33 0 57-17 57-31 0-8 6-15 14-15h62v-204h-62c-8 0-14-7-14-14 0-15-24-31-57-31h0c-34 0-57 16-57 31 0 7-6 14-14 14h-63z m267 251c0 0 0 0 0 0v-18h-51c-8 26-42 45-82 45h0c-41 0-74-19-83-45h-51v18c0 0 0 0 0 0 0 1-1 98 35 162 3 6 7 12 10 18l80-67c2-3 6-4 9-4l0 0 0 0c3 0 6 1 9 4l80 67c3-6 6-12 9-18 37-64 35-161 35-162z m-350-374l-59 45v176h2c33 0 60 27 60 59 0 1 0 1 0 1l-7 253c0 7-6 14-14 14h-109c-8 0-14-7-14-14l-7-253c0 0 0 0 0-1 0-32 27-59 59-59h2v-176l-59-45c-5-3-7-10-5-15 2-6 8-10 14-10h129c6 0 11 4 13 10 2 5 0 12-5 15z m-114 519h82l2-60h-85l1 60z m25-270c-17 0-31 14-31 31l4 151h87l4-151c0-17-14-31-32-31h-32z m-6-246l22 17 23-17h-45z m-96-3l-59 45v176h2c33 0 60 27 60 59 0 1 0 1 0 1l-7 253c0 7-6 14-14 14h-109c-8 0-14-7-14-14l-7-253c0 0 0 0 0-1 0-32 26-59 59-59h2v-176l-59-45c-5-3-7-10-5-15 2-6 8-10 14-10h129c6 0 11 4 13 10 2 5 0 12-5 15z m-114 519h82l2-60h-85l1 60z m25-270c-17 0-31 14-31 31l4 151h87l4-151c-1-17-15-31-32-31h-32z m-6-246l22 17 23-17h-45z" horiz-adv-x="1000" />

<glyph glyph-name="025-shower-1" unicode="&#xe808;" d="M877 850h-61c-19 0-34-15-34-34v-29h-306c-44 0-87-13-123-38-7-4-9-13-4-20 3-4 7-6 12-6 3 0 6 0 8 2 32 21 69 33 107 33h306v-60h-306c-72 0-131-59-131-132v-15h-60v15c0 46 16 91 46 125 6 6 5 16-1 21-6 5-16 4-21-2-34-40-53-91-53-144v-15h-34c-25 0-46-21-46-46v-48c-72-15-129-75-139-150-20-1-37-18-37-39v-58c0-21 17-38 38-38h553c22 0 39 17 39 38v58c0 21-17 38-38 39-10 75-66 135-139 150v48c0 25-20 46-45 46h-34v15c0 57 46 102 102 102h306v-28c0-19 15-35 34-35h61c19 0 34 16 34 35v176c0 19-15 34-34 34z m-314-543h-228c-8 0-14-7-14-15s6-14 14-14h244c0 0 0-1 0-1 0 0 0 0 1 1h11c5 0 9-5 9-10v-58c0-5-4-9-9-9h-553c-5 0-9 4-9 9v58c0 5 4 10 9 10h243c8 0 14 6 14 14s-6 15-14 15h-214c11 71 73 125 147 125h202c74 0 135-54 147-125z m-139 198v-44c-3 0-5 0-8 0h-202c-3 0-6 0-8 0v44c0 9 7 17 16 17h48 0 0 90 0 0 48c9 0 16-8 16-17z m458 135c0-3-3-5-5-5h-61c-3 0-5 2-5 5v176c0 3 2 5 5 5h61c2 0 5-2 5-5z m0 0m-303-534c-8 0-14-6-14-14v-74c0-8 6-15 14-15 8 0 15 7 15 15v74c0 8-7 14-15 14z m0 0m-352 0c-8 0-15-6-15-14v-74c0-8 7-15 15-15 8 0 14 7 14 15v74c0 8-6 14-14 14z m0 0m176 0c-8 0-15-6-15-14v-74c0-8 7-15 15-15 8 0 15 7 15 15v74c0 8-7 14-15 14z m0 0m-353 0c-8 0-14-6-14-14v-74c0-8 6-15 14-15 9 0 15 7 15 15v74c0 8-6 14-15 14z m0 0m265-153c-8 0-15-7-15-15v-73c0-8 7-15 15-15 8 0 15 7 15 15v73c0 8-7 15-15 15z m0 0m176 0c-8 0-14-7-14-15v-73c0-8 6-15 14-15s15 7 15 15v73c0 8-7 15-15 15z m0 0m-352 0c-8 0-15-7-15-15v-73c0-8 7-15 15-15s14 7 14 15v73c0 8-6 15-14 15z m0 0" horiz-adv-x="1000" />

<glyph glyph-name="024-shower" unicode="&#xe809;" d="M59 428c-11 0-20-10-20-21l0-79c0-12 9-21 20-21 12 0 21 9 21 21l0 79c0 11-9 21-21 21z m0 0m103 0c-11 0-20-10-20-21l0-79c0-12 9-21 20-21 12 0 21 9 21 21l0 79c0 11-9 21-21 21z m0 0m103 0c-11 0-20-10-20-21l0-79c0-12 9-21 20-21 12 0 21 9 21 21l0 79c0 11-9 21-21 21z m0 0m106 0c-12 0-21-10-21-21l0-79c0-12 9-21 21-21 11 0 20 9 20 21l0 79c0 11-9 21-20 21z m0 0m123-100l0 79c0 11-9 21-20 21-12 0-21-10-21-21l0-79c0-12 9-21 21-21 11 0 20 9 20 21z m0 0m320-439l-140 0 0 811c0 83-67 150-150 150l-130 0c-76 0-138-56-149-128l-3 0c-39 0-76-23-93-59l-13-27-3 0c-42 0-80-26-96-66l-35-88c-2-7-1-14 3-19 4-6 10-9 17-9l489 0c7 0 13 3 17 9 4 5 4 12 2 18l-32 87c-14 41-53 67-97 67l-4 0-13 28c-17 35-53 59-93 59l-4 0c10 50 54 87 107 87l130 0c60 0 109-49 109-110l0-810-139 0c-11 0-20-9-20-20 0-12 9-21 20-21l320 0c11 0 21 9 21 21 0 11-10 20-21 20z m-355 665l22-58-429 0 24 60c9 24 32 38 57 38l268 0c26 0 50-15 58-40z m-112 91l4-9-169 0 4 9c10 22 32 36 56 36l49 0c24 0 46-14 56-36z m0 0" horiz-adv-x="1000" />

<glyph glyph-name="023-bathtub-with-opened-shower" unicode="&#xe80a;" d="M215-85c44 8 74 48 91 89h-23c-10 0-20 1-30 1-10-21-25-39-48-42-7 6-16 10-26 10-22 0-40-18-40-40s18-41 40-41c16 0 29 9 36 23z m628-23c22 0 40 18 40 41s-18 40-40 40c-9 0-17-3-24-8-19 6-33 24-43 43-15-3-28-4-38-4h-3-1-14c14-38 40-76 86-87 6-15 20-25 37-25z m-66 769l-82 83c-15-4-62-34-76-49l110-109c14 14 44 59 48 75z m-156-31c2 0 4 1 5 3l12 11c1 1 1 2 2 3 1 3 0 6-2 9-2 2-6 3-9 2-1-1-2-1-3-2l-11-12c-3-3-3-8 0-11 1-2 4-3 6-3z m-35-34c2 0 4 0 6 2l11 12c3 3 3 8 0 11s-8 3-11 0l-12-11c-3-4-3-9 0-12 2-2 4-2 6-2z m-35-35c2 0 4 1 6 2l11 12c4 3 4 8 0 11-3 4-8 4-11 0l-12-11c-3-3-3-9 0-12 2-1 4-2 6-2z m112 63c1 3 1 6-2 9-2 2-6 3-9 1-1 0-2 0-2-1l-12-12c-3-3-3-8 0-11 2-2 4-3 6-3 2 0 4 1 6 3l11 11c1 1 1 2 2 3z m-37-26c-3 3-8 3-11 0l-12-12c-3-3-3-8 0-11 2-2 4-3 6-3 2 0 4 1 6 3l11 11c4 4 4 9 0 12z m-34-35c-4 3-9 3-12 0l-12-11c-3-4-3-9 0-12 2-2 4-2 6-2 2 0 4 0 6 2l12 12c3 3 3 8 0 11z m75 21c2 0 4 1 6 2l11 12c1 1 2 2 2 2 1 4 1 7-2 10-2 2-6 3-9 1-1 0-2-1-2-1l-12-12c-3-3-3-8 0-12 2-1 4-2 6-2z m-35-35c2 0 4 1 6 3l12 11c3 3 3 9 0 12-4 3-9 3-12 0l-12-12c-3-3-3-8 0-11 2-2 4-3 6-3z m-35-35c3 0 5 1 6 3l12 11c3 4 3 9 0 12s-9 3-12 0l-11-12c-4-3-4-8 0-11 1-2 3-3 5-3z m370-100h-24-25v377c0 9-7 17-16 17h-72c-4 0-8-2-11-5l-59-54c-13 4-28-1-38-5l57-56c4 10 7 25 4 38l54 49h48v-361h-828-24c-18 0-33-14-33-33v-32c0-18 15-33 33-33h3 8 9c3-13 6-27 10-44l23-110c32-119 97-138 174-141 8 0 15 0 23 0h29l403 0c0 0 0 0 0 0 0 0 0 0 0 0h23c9 0 20 0 31 2l0 0c51 8 116 36 147 130l37 163h10 4c1 0 2 0 3 0 17 2 30 15 30 33v32c0 19-15 33-33 33z m-261-342l0 0c0 0 0-1 0-1 0 0 0 1 0 1z" horiz-adv-x="1000" />

<glyph glyph-name="029-shower-bathroom-tool" unicode="&#xe80b;" d="M777 732l-184-158c-61 40-157-14-157-14l134-134 35-35c14 28 38 88 21 138l179 154h195v56h-205c-7 0-13-2-18-7z m-173-366l-196 196c-34-4-168-88-193-124l265-264c37 24 121 162 124 192z m-397-49c3 0 5 1 7 3l39 40c4 3 4 9 0 13-3 3-9 3-13 0l-39-40c-4-3-4-9 0-13 1-2 4-3 6-3z m-66-66c3 0 5 1 7 3l39 40c4 3 4 9 0 13-3 4-9 4-13 0l-39-40c-4-3-4-9 0-13 1-2 4-3 6-3z m-66-66c3 0 5 1 7 3l39 40c4 3 4 9 0 13s-9 4-13 0l-39-40c-4-3-4-9 0-13 2-2 4-3 6-3z m-66-66c3 0 5 1 7 3l40 40c3 3 3 9 0 13-4 4-10 4-14 0l-39-40c-4-3-4-9 0-13 2-2 4-3 6-3z m284 201l-40-40c-3-3-3-9 0-13 2-2 5-2 7-2s5 0 7 2l39 40c4 4 4 9 0 13-3 4-9 4-13 0z m-66-66l-40-39c-3-4-3-10 0-14 2-1 5-2 7-2 2 0 5 1 7 2l39 40c4 4 4 9 0 13-3 4-9 4-13 0z m-66-66l-40-39c-3-4-3-10 0-14 2-1 5-2 7-2 2 0 5 1 7 2l39 40c4 4 4 10 0 13-3 4-9 4-13 0z m-53-66c-3 4-9 4-13 0l-39-39c-4-4-4-10 0-14 1-1 4-2 6-2 3 0 5 1 7 2l39 40c4 4 4 10 0 13z m238 145l-40-39c-3-4-3-10 0-13 2-2 4-3 7-3 2 0 5 1 6 3l40 39c4 4 4 10 0 13-4 4-10 4-13 0z m-106-118c2-2 4-3 7-3s5 1 6 3l40 39c4 4 4 10 0 13s-10 4-13 0l-40-39c-3-4-3-10 0-13z m-66-66c2-2 4-3 7-3s5 1 6 3l40 39c4 4 4 10 0 13-4 4-10 4-13 0l-40-39c-3-4-3-10 0-13z m-59-69c2 0 5 1 6 3l40 39c4 4 4 10 0 13-4 4-9 4-13 0l-40-39c-3-4-3-10 0-13 2-2 4-3 7-3z m244 148c2-2 4-3 7-3s4 1 6 3l40 39c3 4 3 10 0 14-4 3-10 3-13 0l-40-40c-4-4-4-10 0-13z m-26-13l-40-40c-4-4-4-10 0-13 2-2 4-3 7-3 2 0 4 1 6 3l40 39c3 4 3 10 0 14-4 3-10 3-13 0z m-66-66l-40-40c-4-4-4-10 0-13 2-2 4-3 7-3 2 0 4 1 6 3l40 39c3 4 3 10 0 14-4 3-10 3-13 0z m-66-66l-40-40c-4-4-4-10 0-13 2-2 4-3 7-3 2 0 4 1 6 3l40 39c3 4 3 10 0 14-4 3-10 3-13 0z" horiz-adv-x="1000" />

<glyph glyph-name="031-hair-dryer" unicode="&#xe80c;" d="M984 767l-500 33c-2 0-4 0-5-1-42 33-93 51-146 51-128 0-233-104-233-233 0-61 24-120 67-163v-271c0-58 42-107 100-115v-51c0-9 7-17 16-17h34v-67c0-27-23-50-50-50h-134c-27 0-50 23-50 50v253c30 7 50 34 50 64v33c0 10-7 17-16 17v50h-34v-50h-33v50h-33v-50c-9 0-17-7-17-17v-33c0-30 21-57 50-64v-253c0-46 37-83 83-83h134c46 0 83 37 83 83v67h33c10 0 17 8 17 17v51c57 8 100 57 100 115v251l484 33c9 0 16 8 16 16v267c0 9-7 16-16 17z m-951-517v17h67v-17c0-18-15-33-33-33-19 0-34 15-34 33z m334-217h-67v34h67z m100 150c0-46-38-83-84-83h-100c-46 0-83 37-83 83v278c0 4-2 8-5 12-40 37-62 89-62 144 1 110 90 200 200 200 52 0 102-20 139-56 79-76 82-203 6-282-2-2-4-4-6-6-3-4-5-8-5-12z m48 287c1 2 2 3 4 5 3 4 6 8 8 12 2 2 3 5 5 7 2 4 4 7 6 11 2 3 3 5 4 8 2 4 4 8 6 11 1 3 2 6 3 9 2 3 3 7 4 11 1 3 2 6 3 9 1 4 2 8 3 13 1 2 1 5 2 8 1 4 1 9 2 14 0 2 1 5 1 7 0 7 1 14 1 22 0 7-1 15-1 22-1 2-1 5-1 7-1 5-2 10-2 15-1 3-2 5-2 8-1 4-2 9-4 13 0 3-1 6-2 8-2 5-3 9-5 13-1 3-2 5-3 8-2 4-4 9-7 13-1 2-2 4-3 6-3 7-7 13-11 19-1 0-1 1-2 2-3 4-6 9-10 14l286-19v-258l-286-19c0 0 0 0 1 1z m452 29l-134-9v253l134-9z m0 0m-634 234c-64 0-116-52-116-116 0-65 52-117 116-117 65 0 117 52 117 117 0 64-52 116-117 116z m0-200c-46 0-83 38-83 84 0 46 37 83 83 83 46 0 84-37 84-83 0-46-38-84-84-84z m0 0m0-133c-27 0-50-22-50-50 0-28 23-50 50-50 28 0 50 22 50 50 0 28-22 50-50 50z m0-67c-9 0-16 8-16 17s7 17 16 17c10 0 17-8 17-17 0-9-7-17-17-17z m0 0m0-66c-27 0-50-23-50-50 0-28 23-50 50-50 28 0 50 22 50 50 0 27-22 50-50 50z m0-67c-9 0-16 8-16 17 0 9 7 16 16 16 10 0 17-7 17-16 0-9-7-17-17-17z m0 0" horiz-adv-x="1000" />

<glyph glyph-name="036-woman" unicode="&#xe80d;" d="M705 120c-1 1-1 2-2 3 0 2-1 3-1 4-1 1-2 2-3 3-1 1-2 1-3 2-1 1-2 1-3 2-1 0-2 1-4 1-2 1-5 1-7 0-2 0-3-1-4-1-1-1-2-1-3-2-1-1-2-1-3-2-1-1-2-2-3-3 0-1-1-2-2-4 0-1 0-2-1-3s0-3 0-4c0-5 2-10 6-14 1-1 2-2 3-2 1-1 2-2 3-2 1-1 2-1 4-1 1-1 2-1 3-1 2 0 3 0 4 1 2 0 3 0 4 1 1 0 2 1 3 2 1 0 2 1 3 2 4 4 6 9 6 14 0 1 0 2 0 4z m-381 0c0 1 0 2-1 3 0 2-1 3-1 4-1 1-2 2-3 3-1 1-2 1-3 2-1 1-2 1-3 2-1 0-3 1-4 1-2 1-5 1-7 0-2 0-3-1-4-1-1-1-2-1-4-2-1-1-2-1-2-2-1-1-2-2-3-3-1-1-1-2-2-4 0-1-1-2-1-3 0-2 0-3 0-4 0-1 0-3 0-4 0-1 1-2 1-4 1-1 1-2 2-3 1-1 2-2 3-3 0-1 1-2 2-2 2-1 3-2 4-2 1-1 2-1 4-1 1-1 2-1 3-1 2 0 3 0 4 1 1 0 3 0 4 1 1 0 2 1 3 2 1 0 2 1 3 2 1 1 2 2 3 3 0 1 1 2 1 3 1 2 1 3 1 4 1 1 1 3 1 4 0 1 0 2-1 4z m386 153h-130l-3 32c32 13 60 34 81 60 24 31 37 69 38 109 51 59 63 143 32 216-27 61-81 105-147 119-3 3-7 7-11 10-21 17-52 28-88 31-38 2-78-6-114-22-90-42-113-127-117-144-32-140 39-227 58-248 13-58 55-106 113-131l-4-32h-128c-52 0-93-41-93-93v-311c0-10 8-19 19-19h568c11 0 19 9 19 19v311c0 52-41 93-93 93z m-100 431c6 15 7 35 1 54 36-17 65-47 81-84 20-46 18-98-4-142-3 10-6 19-10 29-20 46-56 82-101 103 15 9 27 21 33 40z m-36 41c3-10 3-20 0-28-9-23-34-29-77-36-1 0-2 0-3-1-42-7-94-15-136-52 9 26 33 76 91 103 47 22 94 22 125 14z m-265-214c-1-8-2-15-3-22-18 37-34 93-17 166 3 14 22 83 95 117 63 30 132 22 161-3 1 0 1 0 1 0-37 2-77-6-113-23-90-41-113-127-117-143-7-32-10-62-7-92z m127-297l0 0c10 0 18 8 19 18l7 64c1 9-4 18-13 21-54 18-93 60-103 112-4 34-3 104 25 136 0 1 0 1 0 1 0 0 0 0 0 0 0 0 0 0 0 0 1 1 1 1 1 1 34 38 79 47 122 54 1 0 1 0 1 0l5 1c3 0 6 1 9 1 0 0 1 1 2 1 58-8 108-45 131-99 9-22 14-43 15-63v-4c0-66-41-120-108-142-8-3-14-11-13-21l7-63c1-10 10-18 20-18h30l-92-163-18 32-76 131h29z m-111-345v157c0 11-9 19-20 19s-19-8-19-19v-157h-50v291h0c0 30 24 54 54 54h72l118-203-80-142h-75z m439 0h-59v157c0 11-9 19-20 19s-19-8-19-19v-157h-221l193 345h72c30 0 54-24 54-54v-291z m-299 626c-6 9-18 11-27 5-10-7-24-7-34 0-8 6-20 4-27-5-6-8-4-21 5-27 11-8 25-13 39-13 14 0 28 5 40 13 8 6 10 19 4 27z m160 0c-6 9-18 11-27 5-10-7-23-7-33 0-9 6-21 4-27-5-7-8-5-21 4-27 12-8 26-13 39-13 14 0 28 5 40 13 9 6 11 19 4 27z m-81-103c-6 9-19 11-27 4-10-7-24-7-34 0-8 7-21 5-27-4-6-9-4-21 4-27 12-9 26-13 40-13 14 0 28 4 40 13 8 6 10 18 4 27z" horiz-adv-x="1000" />

<glyph glyph-name="038-deck-chair" unicode="&#xe80e;" d="M217 117h-67v44c20 7 33 26 33 47v70l24 35-28 19-32-49h-14c-5 28-31 46-58 41-27-4-46-30-41-57 4-24 25-42 49-42v-17c0-21 14-40 34-47v-44h-67c-28 0-50-23-50-50s22-50 50-50h67v-134h-67v-33h167v33h-67v134h67c27 0 50 22 50 50s-23 50-50 50z m-134 166v-25c-9 0-16 8-16 17s7 17 16 17c6 0 12-4 14-9h-14z m34-33h33v-42c0-9-7-16-17-16s-16 7-16 16v42z m100-200h-167c-9 0-17 8-17 17s8 16 17 16h167c9 0 16-7 16-16s-7-17-16-17z m783 283v17c0 147-119 267-267 267h-66c-147 0-267-120-267-267v-17h283v-316h-341c-32 0-59-27-59-59 0-32 27-58 59-58h8v-50h33v50h300v-50h34v50h66v-50h34v67l166 167c23 23 23 60 0 82-23 22-59 22-83 0l-149-149h-34v316h283z m-34 34h-143v11c0 62-22 122-60 170l-28 35c122 0 222-95 231-216z m-249 185l20-25c34-42 52-95 53-149v-11h-73v185z m-140-185h-143c9 121 110 216 231 216l-28-35c-38-48-60-108-60-170v-11z m33 0v11c1 54 19 107 54 149l19 25v-185h-73z m115-400v16h40l26 27 17-17 24 24-17 17 26 26 17-17 24 24-17 17 26 26 17-17 24 24-17 17 9 9c10 9 26 9 35 0 10-10 10-26 0-36l-166-166c-5-5-11-8-18-8h-433c-14 0-25 11-25 25 0 14 11 25 25 25h16v-16h34v16h33v-16h33v16h34v-16h33v16h33v-16h34v16h33v-16h33v16h34v-16h33z m-508 583c55 0 100 45 100 100 0 55-45 100-100 100-56 0-100-45-100-100s44-100 100-100z m0 167c37 0 66-30 66-67s-29-67-66-67-67 30-67 67 30 67 67 67z" horiz-adv-x="1000" />

<glyph glyph-name="037-massage" unicode="&#xe80f;" d="M1000 92h-48c-11 6-23 8-36 8h-100v58h25l21-29h64c40 0 73 33 73 73 0 19-8 38-21 52-14 13-33 21-52 21h-64l-21-29h-27c-2 14-9 27-20 37-14 14-32 22-52 22h-18l143 143-95 174c-15 27-43 43-73 43h-58v17l29 22v71c0 41-33 74-73 74s-73-33-73-74v-71l29-22v-17h-57c-30 0-58-16-73-43l-95-174 143-143h-58l-60 16c-59 17-121-10-151-63h-202v-29h196v-56h-196v-30h196v-51h-196v-29h67v-212h29v212h29v-212h30v212h41v-90h271v90h29v-212h29v212h53v-212h29v212h55v-212h29v212h27v-6c0-30 24-54 54-54h48v-152h29v152h29v-152h29v152h92v15c0 16-5 32-13 45h14v29z m-562-89h-213v237c23 44 73 66 121 53l63-17h29v-273z m393 450l-174-173c-2-3-6-4-10-4-4 0-8 1-10 4-3 3-5 6-5 10 0 4 2 8 5 10l158 159-18 28 27 15 27-49z m-140-57v35l23 104 44-72-67-67z m-138 379c0 25 20 44 44 44s44-19 44-44v-56l-29-22v-61h20v-13c0-18-16-34-34-34s-35 16-35 34v13h19v61l-29 22v56z m-188-322l26 49 26-14-17-30 158-158c3-2 5-6 5-10 0-4-2-7-5-10-2-3-6-4-10-4-4 0-8 1-10 4l-173 173z m72 10l41 71 18-103v-27l-59 59z m281-371h-251v51h251v-51z m54-60c-13 0-24 11-24 25v116h-281v103h33l17-17c8-8 19-13 31-13 12 0 23 5 31 13 8 8 13 19 13 31s-5 23-13 31l-54 54v59l-25 146h-29l-39-67-27 15 44 80c9 17 27 28 47 28h38v-13c0-34 29-63 64-63s63 29 63 63v13h38c19 0 38-11 47-28l44-80-28-16-40 68h-28l-32-146v-67l-46-46c-8-8-13-19-13-31s5-23 13-31c8-8 19-13 31-13 0 0 0 0 0 0 12 0 23 5 31 13l17 17h47c12 0 23-5 31-13 9-9 14-20 14-32v-15h68l22 30h49c12 0 23-5 31-13 8-8 13-19 13-31 0-24-20-44-44-44h-49l-22 29h-68v-116h129c15 0 28-5 38-15 7-7 11-15 14-24h-196z" horiz-adv-x="1000" />

<glyph glyph-name="041-weightlifting" unicode="&#xe810;" d="M985 440c-11 13-25 20-40 20h-23v18c0 33-29 60-64 60h-30v34c0 16-7 31-18 42-24 23-65 23-88 0-12-11-19-26-19-42v-159h-406v159c0 16-7 31-19 42-23 23-64 23-87 0-12-11-19-26-19-42v-34h-34c-15 0-30-6-42-16-11-11-18-26-18-41v-21h-22c-16 0-30-7-41-20-9-12-15-27-15-44v-91c0-17 6-32 15-44 11-13 26-20 41-20h22v-22c0-15 7-30 18-40 12-10 27-16 42-16h34v-34c0-16 7-32 19-43 11-11 27-17 43-17s33 6 44 17c12 12 19 27 19 43v159h406v-159c0-16 7-32 19-43 12-11 27-17 44-17 16 0 32 6 44 17 11 12 18 27 18 43v34h30c35 0 64 27 64 60v18h23c15 0 29 7 40 20 10 11 15 27 15 43v92c0 17-5 32-15 44z m-929-168c-6 0-12 3-17 9-5 6-8 15-8 24v91c0 9 3 18 8 24 5 5 11 8 17 8h22v-156h-22z m82-78c-8 0-15 3-21 8-5 5-8 11-8 17v38 187 37c0 7 3 13 8 18 6 5 13 8 21 8h34v-313h-34z m128-65c0-8-3-15-9-20-12-11-33-11-45 0-6 5-9 13-9 20v49 344 50c0 7 3 14 9 20 6 5 14 8 22 8 9 0 17-3 23-8 6-6 9-13 9-20v-175-94-174z m31 190v63h406v-63h-406z m500-190c0-8-3-15-9-20-12-11-33-11-45 0-5 5-9 13-9 20v174 94 175c0 7 4 14 9 20 6 5 14 8 23 8 8 0 16-3 22-8 6-6 9-13 9-20v-50-344-49z m94 94c0-16-15-29-33-29h-30v313h30c18 0 33-13 33-29v-34-187-34z m78 81c0-9-3-17-8-23-5-6-10-9-16-9h-23v156h23c6 0 11-3 16-8 5-6 8-15 8-24v-92z" horiz-adv-x="1000" />

<glyph glyph-name="044-praying-mat" unicode="&#xe811;" d="M821-77v854c9 2 15 7 15 13 0 5-4 9-9 12l4 43c0 1 0 3-1 4-1 1-2 1-3 1h-27c-1 0-3 0-3-1-1-1-2-3-2-4l5-43c-6-3-9-7-9-12 0 0 0 0 0-1h-12c0 1 0 1 0 1 0 5-3 9-9 12l4 43c0 1 0 3-1 4-1 1-2 1-3 1h-27c-1 0-3 0-3-1-1-1-2-3-1-4l4-43c-6-3-9-7-9-12 0 0 0 0 0-1h-12c0 1 0 1 0 1 0 5-3 9-9 12l4 43c0 1 0 3-1 4-1 1-2 1-3 1h-27c-1 0-2 0-3-1-1-1-2-3-1-4l4-43c-6-3-9-7-9-12 0 0 0 0 0-1h-12c0 1 0 1 0 1 0 5-3 9-9 12l4 43c0 1 0 3-1 4-1 1-2 1-3 1h-27c-1 0-2 0-3-1-1-1-2-3-1-4l4-43c-6-3-9-7-9-12 0 0 0 0 0-1h-12c0 1 0 1 0 1 0 5-3 9-9 12l4 43c1 1 0 3-1 4-1 1-2 1-3 1h-27c-1 0-2 0-3-1-1-1-1-3-1-4l4-43c-6-3-9-7-9-12 0 0 0 0 0-1h-12c0 1 0 1 0 1 0 5-3 9-9 12l4 43c1 1 0 3-1 4-1 1-2 1-3 1h-27c-1 0-2 0-3-1-1-1-1-3-1-4l4-43c-6-3-9-7-9-12 0 0 0 0 0-1h-12c0 1 0 1 0 1 0 5-3 9-9 12l4 43c1 1 0 3-1 4-1 1-2 1-3 1h-27c-1 0-2 0-3-1-1-1-1-3-1-4l4-43c-6-3-9-7-9-12 0 0 0 0 0-1h-12c0 1 0 1 0 1 0 5-3 9-9 12l4 43c1 1 0 3-1 4 0 1-2 1-3 1h-27c-1 0-2 0-3-1-1-1-1-3-1-4l4-43c-6-3-9-7-9-12 0 0 0 0 0-1h-12c0 1 0 1 0 1 0 5-3 9-9 12l5 43c0 1-1 3-2 4 0 1-2 1-3 1h-27c-1 0-2 0-3-1-1-1-1-3-1-4l4-43c-5-3-9-7-9-12 0 0 0 0 1-1h-13c0 1 0 1 0 1 0 5-3 9-8 12l4 43c0 1-1 3-2 4 0 1-2 1-3 1h-27c-1 0-2 0-3-1-1-1-1-3-1-4l4-43c-5-3-9-7-9-12 0 0 1 0 1-1h-13c0 1 0 1 0 1 0 5-3 9-8 12l4 43c0 1-1 3-2 4 0 1-2 1-3 1h-27c-1 0-2 0-3-1-1-1-1-3-1-4l4-43c-5-3-8-7-8-12 0 0 0 0 0-1h-13c0 1 0 1 0 1 0 5-3 9-8 12l4 43c0 1-1 3-2 4 0 1-2 1-3 1h-27c-1 0-2 0-3-1-1-1-1-3-1-4l4-43c-5-3-8-7-8-12 0-6 5-11 14-13v-854c-9-2-14-7-14-13 0-5 3-9 8-12l-4-43c0-2 0-3 1-4 1-1 2-1 3-1h27c1 0 3 0 3 1 1 1 2 2 2 4l-4 43c5 3 8 7 8 12 0 0 0 0 0 1h13c0-1 0-1 0-1 0-5 3-9 8-12l-4-43c0-2 0-3 1-4 1-1 2-1 3-1h27c1 0 3 0 3 1 1 1 2 2 2 4l-4 43c5 3 8 7 8 12 0 0 0 0 0 1h13c0-1-1-1-1-1 0-5 4-9 9-12l-4-43c0-2 0-3 1-4 1-1 2-1 3-1h27c1 0 3 0 3 1 1 1 2 2 2 4l-4 43c5 3 8 7 8 12 0 0 0 0 0 1h13c-1-1-1-1-1-1 0-5 4-9 9-12l-4-43c0-2 0-3 1-4 1-1 2-1 3-1h27c1 0 3 0 3 1 1 1 2 2 2 4l-5 43c6 3 9 7 9 12 0 0 0 0 0 1h12c0-1 0-1 0-1 0-5 3-9 9-12l-4-43c0-2 0-3 1-4 1-1 2-1 3-1h27c1 0 3 0 3 1 1 1 2 2 1 4l-4 43c6 3 9 7 9 12 0 0 0 0 0 1h12c0-1 0-1 0-1 0-5 3-9 9-12l-4-43c0-2 0-3 1-4 1-1 2-1 3-1h27c1 0 2 0 3 1 1 1 2 2 1 4l-4 43c6 3 9 7 9 12 0 0 0 0 0 1h12c0-1 0-1 0-1 0-5 3-9 9-12l-4-43c0-2 0-3 1-4 1-1 2-1 3-1h27c1 0 2 0 3 1 1 1 2 2 1 4l-4 43c6 3 9 7 9 12 0 0 0 0 0 1h12c0-1 0-1 0-1 0-5 3-9 9-12l-4-43c0-2 0-3 1-4 1-1 2-1 3-1h27c1 0 2 0 3 1 1 1 2 2 1 4l-4 43c6 3 9 7 9 12 0 0 0 0 0 1h12c0-1 0-1 0-1 0-5 3-9 9-12l-4-43c-1-2 0-3 1-4 1-1 2-1 3-1h27c1 0 2 0 3 1 1 1 1 2 1 4l-4 43c6 3 9 7 9 12 0 0 0 0 0 1h12c0-1 0-1 0-1 0-5 3-9 9-12l-4-43c-1-2 0-3 1-4 1-1 2-1 3-1h27c1 0 2 0 3 1 1 1 1 2 1 4l-4 43c6 3 9 7 9 12 0 0 0 0 0 1h12c0-1 0-1 0-1 0-5 3-9 9-12l-4-43c-1-2 0-3 1-4 0-1 2-1 3-1h27c1 0 2 0 3 1 1 1 1 2 1 4l-4 43c6 3 9 7 9 12 0 0 0 0 0 1h12c0-1 0-1 0-1 0-5 3-9 9-12l-4-43c-1-2 0-3 1-4 0-1 2-1 3-1h27c1 0 2 0 3 1 1 1 1 2 1 4l-4 43c6 3 9 7 9 12 0 6-6 11-15 13z m-95 85h-452v519c0 100 226 165 226 165s226-65 226-165v-519z" horiz-adv-x="1000" />

<glyph glyph-name="agenda" unicode="&#xe812;" d="M792 423c-15 10-32 12-45 9-10-2-20-9-25-19-10-13-24-28-27-30-23-15-42-13-62 7l-93 93c-20 20-22 37-7 60 4 4 17 17 30 27 9 7 15 15 19 25 3 13 0 30-9 45-5 8-48 82-90 103-23 14-51 9-70-10l-26-28c-59-58-97-157 43-297l128-128c70-72 130-97 180-97 50 0 89 24 119 52l28 28c18 19 22 47 10 70-22 42-95 85-103 90z m66-136l-28-29c-37-36-77-50-122-40-40 10-83 39-128 84l-128 128c-97 97-112 182-44 250l29 28c5 5 11 9 18 9 5 0 8-2 13-5 29-15 65-70 77-90 5-9 7-15 5-20 0-2-40-35-45-42-3-5-6-10-9-15-4 12-8 24-9 38-2 10-9 17-19 15s-16-10-15-18c5-45 28-81 47-104 4-7 9-13 15-19l93-94c10-9 19-16 29-20 22-15 59-35 106-40 9 0 15 7 17 14 0 10-7 16-15 18-17 2-32 6-46 11 5 2 9 5 13 7 6 5 23 22 35 37 0 0 10 20 26 3 20-11 75-48 90-76 5-10 4-22-5-30z m59 563h-634-133c-28 0-50-22-50-50v-2c-38-7-67-40-67-81 0-41 29-74 67-82v-20c-38-7-67-41-67-82 0-41 29-74 67-81v-20c-38-8-67-41-67-82 0-41 29-74 67-82v-20c-38-7-67-40-67-81 0-41 29-74 67-82v-20c-38-7-67-41-67-82 0-41 29-74 67-81v-2c0-28 22-50 50-50h133 634c28 0 50 22 50 50v900c0 28-22 50-50 50z m-850-133c0 22 13 40 33 47v-95c-20 7-33 25-33 48z m0-184c0 23 13 41 33 48v-95c-20 7-33 25-33 47z m0-183c0 22 13 41 33 47v-94c-20 6-33 25-33 47z m0-183c0 22 13 40 33 47v-95c-20 7-33 25-33 48z m0-184c0 23 13 41 33 48v-95c-20 7-33 25-33 47z m66-83v131c20-7 34-25 34-48 0-10 6-16 16-16s17 6 17 16c0 41-28 75-67 82v149c20-7 34-25 34-47 0-10 6-17 16-17s17 7 17 17c0 41-28 74-67 81v149c20-6 34-25 34-47 0-10 6-17 16-17s17 7 17 17c0 41-28 74-67 82v149c20-7 34-25 34-48 0-10 6-16 16-16s17 6 17 16c0 41-28 75-67 82v149c20-7 34-25 34-47 0-10 6-17 16-17s17 7 17 17c0 41-28 74-67 81v2c0 10 9 17 17 17h117v-934h-117c-10 0-17 7-17 17z m800 0c0-10-6-17-16-17h-617v934h617c10 0 16-7 16-17v-900z m-416 217h-134c-10 0-16-7-16-17s6-17 16-17h134c10 0 16 7 16 17s-6 17-16 17z m333 0h-267c-10 0-16-7-16-17s6-17 16-17h267c10 0 17 7 17 17s-7 17-17 17z m0-67h-83c-10 0-17-7-17-17s7-16 17-16h83c10 0 17 6 17 16s-7 17-17 17z m-367-17c0-10 7-16 17-16h200c10 0 17 6 17 16s-7 17-17 17h-200c-10 0-17-7-17-17z m367-50h-167c-10 0-16-6-16-16 0-10 6-17 16-17h167c10 0 17 7 17 17 0 10-7 16-17 16z m-233 0h-234c-10 0-16-6-16-16 0-10 6-17 16-17h234c10 0 16 7 16 17 0 10-6 16-16 16z m-234 34h50c10 0 17 6 17 16s-7 17-17 17h-50c-10 0-16-7-16-17s6-16 16-16z" horiz-adv-x="1000" />

<glyph glyph-name="bed-1" unicode="&#xe813;" d="M950 367h-3l-75 378c-5 22-25 38-49 38h-646c-24 0-44-16-49-40l-75-376h-3c-28 0-50-22-50-50v-184-33-83-34-16c0-29 22-50 50-50h113c19 0 35 10 44 28l19 38h547l19-38c8-18 26-28 45-28h113c28 0 50 21 50 50v16 34 83 33 184c0 28-22 50-50 50z m-790 370c2 8 8 13 17 13h646c9 0 15-7 17-13l73-370h-31c-10 84-95 150-199 150-81 0-152-42-183-101-31 59-102 101-183 101-104 0-189-66-199-150h-31l73 370z m688-370h-330c10 65 80 116 165 116s155-51 165-116z m-366 0h-330c10 65 80 116 165 116 85 0 155-51 165-116z m-304-407c-3-7-8-10-15-10h-113c-10 0-17 7-17 17v16h157l-12-23z m789 7c0-10-7-17-17-17h-113c-7 0-12 5-15 10l-12 23h157v-16z m0 50h-210-514-210v83h934v-83z m-934 116v50h50c10 0 17 7 17 17 0 10-7 17-17 17h-50v33h50c10 0 17 7 17 17s-7 16-17 16h-50v34c0 10 7 16 17 16h67 366 34 366 67c10 0 17-6 17-16v-34h-67c-10 0-17-6-17-16s7-17 17-17h67v-33h-67c-10 0-17-7-17-17 0-10 7-17 17-17h67v-50h-934z" horiz-adv-x="1000" />

<glyph glyph-name="bathtub" unicode="&#xe814;" d="M950 317h-17v350c0 83-66 150-150 150-73 0-126-55-132-135-39-7-68-41-68-82 0-10 7-17 17-17h133c10 0 17 7 17 17 0 41-28 74-66 82 5 53 37 101 99 101 65 0 117-51 117-116v-350h-502c-7 38-40 66-81 66-17 20-40 34-67 34-32 0-60-19-73-45-14 6-29 11-44 11-41 0-74-28-81-66h-2c-28 0-50-22-50-50 0-29 22-50 50-50h20l45-179c13-51 60-88 113-88h14l-22-43c-5-9-2-19 7-22 1-2 5-2 6-2 7 0 12 4 15 9l30 58h462l28-57c4-6 9-10 15-10 4 0 5 0 7 4 7 3 10 13 7 21l-21 42c51 2 96 38 109 87l45 180h20c28 0 50 21 50 50 0 28-22 50-50 50z m-235 300h-95c7 20 27 33 48 33s40-13 47-33z m-582-267c15 0 29-7 40-18 4-5 10-7 17-5s10 6 12 13c5 25 25 43 50 43 18 0 35-8 43-25 3-6 12-10 18-8 2 0 4 0 5 0 22 0 40-13 47-33h-278c6 20 25 33 46 33z m722-303c-10-37-43-64-82-64h-543c-38 0-72 27-82 64l-43 170h790l-40-170z m95 203h-33-834-33c-10 0-17 7-17 17s7 16 17 16h17 316 567c10 0 17-6 17-16s-7-17-17-17z m-350 258c10 0 17 7 17 17v8c0 10-7 17-17 17s-17-7-17-17v-8c0-10 7-17 17-17z m0-76c10 0 17 8 17 16v19c0 10-7 16-17 16s-17-6-17-16v-19c0-10 7-16 17-16z m0-65c10 0 17 6 17 16v9c0 10-7 16-17 16s-17-6-17-16v-9c0-10 7-16 17-16z m67 141c10 0 16 7 16 17v8c0 10-6 17-16 17-10 0-17-7-17-17v-8c0-10 7-17 17-17z m-17-60c0-10 7-16 17-16 10 0 16 8 16 16v19c0 10-6 16-16 16-10 0-17-6-17-16v-19z m0-65c0-10 7-16 17-16 10 0 16 6 16 16v9c0 10-6 16-16 16-10 0-17-6-17-16v-9z m83 125c10 0 17 7 17 17v8c0 10-7 17-17 17s-16-7-16-17v-8c0-10 6-17 16-17z m-16-60c0-10 6-16 16-16s17 8 17 16v19c0 10-7 16-17 16s-16-6-16-16v-19z m0-65c0-10 6-16 16-16s17 6 17 16v9c0 10-7 16-17 16s-16-6-16-16v-9z" horiz-adv-x="1000" />

<glyph glyph-name="burj-al-arab" unicode="&#xe815;" d="M717-50h-29l12 57c12 50 17 100 17 151 0 40-5 80-12 119-32 166-115 310-235 403-34 26-75 48-120 64v89c0 10-7 17-17 17-10 0-16-7-16-17v-100-783h-34c-10 0-16-7-16-17v-66c0-10 6-17 16-17h434c10 0 16 7 16 17v66c0 10-6 17-16 17z m-367 760c38-15 72-33 100-55 113-88 193-223 223-383 7-39 10-75 10-114 0-48-6-98-16-145l-14-63h-49l19 98c3 15 6 30 7 45 1 2 2 5 2 7 0 1 0 3-1 4 2 15 2 30 2 46 0 35-5 88-11 120-6 29-13 57-22 84-1 2-1 3-2 4-21 62-52 120-91 169-4 5-9 6-14 6h-76c-10 0-17-6-17-16v-567h-50v760z m242-460c2-15 4-32 6-50h-165v50h159z m8-100c0-11 0-22-1-33h-166v50h167c0-6 0-12 0-17z m-167-67h162c-1-10-3-20-5-30l-4-20h-153v50z m0 200v50h138c6-16 10-33 15-50h-153z m0 84v50h104c8-16 15-33 22-50h-126z m0 83v50h52c12-16 23-33 33-50h-85z m0-450h147l-10-50h-137v50z m267-117h-400v34h33 84 166 84 33v-34z" horiz-adv-x="1000" />

<glyph glyph-name="calendar" unicode="&#xe816;" d="M950 750h-2c-7 38-40 67-81 67-41 0-74-29-82-67h-20c-7 38-41 67-82 67-41 0-74-29-81-67h-20c-8 38-41 67-82 67s-74-29-82-67h-20c-7 38-40 67-81 67s-74-29-82-67h-20c-7 38-41 67-82 67-41 0-74-29-81-67h-2c-28 0-50-22-50-50v-133-634c0-28 22-50 50-50h900c28 0 50 22 50 50v634 133c0 28-22 50-50 50z m-83 33c22 0 40-13 47-33h-95c7 20 25 33 48 33z m-184 0c23 0 41-13 48-33h-95c7 20 25 33 47 33z m-183 0c22 0 41-13 47-33h-94c6 20 25 33 47 33z m-183 0c22 0 40-13 47-33h-95c7 20 25 33 48 33z m-184 0c23 0 41-13 48-33h-95c7 20 25 33 47 33z m-100-83c0 10 9 17 17 17h131c-7-20-25-34-48-34-10 0-16-6-16-16s8-17 16-17c41 0 75 28 82 67h149c-7-20-25-34-47-34-10 0-17-6-17-16s7-17 17-17c41 0 74 28 81 67h149c-6-20-25-34-47-34-10 0-17-6-17-16s7-17 17-17c41 0 74 28 82 67h149c-7-20-25-34-48-34-10 0-16-6-16-16s6-17 16-17c41 0 75 28 82 67h149c-7-20-25-34-47-34-10 0-17-6-17-16s7-17 17-17c41 0 74 28 81 67h2c10 0 17-7 17-17v-117h-934v117z m934-767c0-10-7-16-17-16h-900c-10 0-17 6-17 16v617h934v-617z m-817 417h100c10 0 17 7 17 17v100c0 10-7 16-17 16h-100c-10 0-17-6-17-16v-100c0-10 7-17 17-17z m17 100h66v-67h-66v67z m183-100h100c10 0 17 7 17 17v100c0 10-7 16-17 16h-100c-10 0-17-6-17-16v-100c0-10 7-17 17-17z m17 100h66v-67h-66v67z m183-100h100c10 0 17 7 17 17v100c0 10-7 16-17 16h-100c-10 0-17-6-17-16v-100c0-10 7-17 17-17z m17 100h66v-67h-66v67z m183-100h100c10 0 17 7 17 17v100c0 10-7 16-17 16h-100c-10 0-17-6-17-16v-100c0-10 7-17 17-17z m17 100h66v-67h-66v67z m-617-283h100c10 0 17 6 17 16v100c0 10-7 17-17 17h-100c-10 0-17-7-17-17v-100c0-10 7-16 17-16z m17 100h66v-67h-66v67z m183-100h100c10 0 17 6 17 16v100c0 10-7 17-17 17h-100c-10 0-17-7-17-17v-100c0-10 7-16 17-16z m17 100h66v-67h-66v67z m183-100h100c10 0 17 6 17 16v100c0 10-7 17-17 17h-100c-10 0-17-7-17-17v-100c0-10 7-16 17-16z m17 100h66v-67h-66v67z m183-100h100c10 0 17 6 17 16v100c0 10-7 17-17 17h-100c-10 0-17-7-17-17v-100c0-10 7-16 17-16z m17 100h66v-67h-66v67z m-617-284h100c10 0 17 7 17 17v100c0 10-7 17-17 17h-100c-10 0-17-7-17-17v-100c0-10 7-17 17-17z m17 100h66v-66h-66v66z m183-100h100c10 0 17 7 17 17v100c0 10-7 17-17 17h-100c-10 0-17-7-17-17v-100c0-10 7-17 17-17z m17 100h66v-66h-66v66z m183-100h100c10 0 17 7 17 17v100c0 10-7 17-17 17h-100c-10 0-17-7-17-17v-100c0-10 7-17 17-17z m17 100h66v-66h-66v66z m183-100h100c10 0 17 7 17 17v100c0 10-7 17-17 17h-100c-10 0-17-7-17-17v-100c0-10 7-17 17-17z m17 100h66v-66h-66v66z" horiz-adv-x="1000" />

<glyph glyph-name="building" unicode="&#xe817;" d="M117-50h200c10 0 16 7 16 17v200c0 10-6 16-16 16h-200c-10 0-17-6-17-16v-200c0-10 7-17 17-17z m183 33h-67v167h67v-167z m-167 167h67v-167h-67v167z m550-200h200c10 0 17 7 17 17v200c0 10-7 16-17 16h-200c-10 0-16-6-16-16v-200c0-10 6-17 16-17z m184 33h-67v167h67v-167z m-167 167h67v-167h-67v167z m-383 367h-200c-10 0-17-7-17-17v-200c0-10 7-17 17-17h200c10 0 16 7 16 17v200c0 10-6 17-16 17z m-17-34v-66h-167v66h167z m-167-166v66h67v-16c0-10 7-17 17-17s16 7 16 17v16h67v-66h-167z m750 200h-200c-10 0-16-7-16-17v-200c0-10 6-17 16-17h200c10 0 17 7 17 17v200c0 10-7 17-17 17z m-16-34v-66h-167v66h167z m-167-166v66h67v-16c0-10 6-17 16-17 10 0 17 7 17 17v16h67v-66h-167z m-100 200h-200c-10 0-17-7-17-17v-200c0-10 7-17 17-17h200c10 0 17 7 17 17v200c0 10-7 17-17 17z m-17-34v-66h-166v66h166z m-166-166v66h66v-16c0-10 7-17 17-17s17 7 17 17v16h66v-66h-166z m566-67h-16v300h16c10 0 17 7 17 17 0 10-7 16-17 16h-16v34 50c0 2 0 4 0 7 0 0 0 0 0 0-4 99-85 176-184 176h-566c-99 0-179-77-183-176 0 0 0 0 0 0-1-3-1-5-1-7v-50-34h-16c-10 0-17-6-17-16 0-10 7-17 17-17h16v-300h-16c-10 0-17-7-17-17s7-16 17-16h16v-350c0-10 7-17 17-17h333 234 333c10 0 17 7 17 17v350h16c10 0 17 6 17 16s-7 17-17 17z m-916 300h866v-300h-866v300z m816 200h25c1-2 3-3 4-5 0 0 0-1 0-1 1-2 2-4 3-5 0-1 0-1 0-1 11-19 17-40 18-63 0 0 0-1 0-1 0-3 0-5 0-7v-17h-50v100z m-816-76c0 0 0 1 0 1 1 23 7 44 18 63 0 0 0 0 0 1 1 1 2 3 3 5 0 0 0 1 0 1 2 2 3 3 4 5h25v-100h-50v17c0 2 0 4 0 7z m50-57c18 0 33 15 33 33v100c0 17-12 31-28 33 25 21 58 34 95 34h566c37 0 70-13 96-34-17-2-29-16-29-33v-100c0-18 15-33 33-33h50v-34h-866v34h50z m366-617v-117h-83v267h83v-117c-10 0-16-6-16-16s6-17 16-17z m34-117v117c10 0 16 7 16 17s-6 16-16 16v117h83v-267h-83z m416 0h-300v284c0 10-6 16-16 16h-234c-10 0-16-6-16-16v-284h-300v334h866v-334z m-483 734h100c18 0 33 15 33 33v100c0 18-15 33-33 33h-100c-18 0-33-15-33-33v-100c0-18 15-33 33-33z m0 133h100v-100h-100v100z m-217-133h100c19 0 34 15 34 33v100c0 18-15 33-34 33h-100c-18 0-33-15-33-33v-100c0-18 15-33 33-33z m0 133h100v-100h-100v100z m434-133h100c18 0 33 15 33 33v100c0 18-15 33-33 33h-100c-19 0-34-15-34-33v-100c0-18 15-33 34-33z m0 133h100v-100h-100v100z" horiz-adv-x="1000" />

<glyph glyph-name="bell" unicode="&#xe818;" d="M983 117h-150v33h117c10 0 17 7 17 17 0 266-197 474-450 483v33h66c10 0 17 7 17 17s-7 17-17 17h-166c-10 0-17-7-17-17s7-17 17-17h66v-33c-253-9-450-217-450-483 0-10 7-17 17-17h117v-33h-150c-10 0-17-7-17-17v-100c0-10 7-17 17-17h966c10 0 17 7 17 17v100c0 10-7 17-17 17z m-483 500c238 0 425-189 433-434h-116-634-116c8 245 196 434 433 434z m-300-467h600v-33h-600v33z m767-133h-934v66h150 634 150v-66z m-530 526c8 2 15 12 13 20-2 9-12 15-20 14-150-27-270-137-313-290-2-9 3-19 11-20 2 0 4 0 5 0 7 0 14 5 15 11 40 139 150 240 289 265z" horiz-adv-x="1000" />

<glyph glyph-name="048-family-group" unicode="&#xe819;" d="M216 645l0 0c0 0 1 0 2 0v0c56 1 101 46 101 103s-45 102-101 102v0c-1 0-2 0-2 0v0c-56 0-102-46-102-102s46-102 102-103z m632-18c-9 6-19 10-29 12l-26-26-25 26c0 0 0 0 0 0-13-3-41-18-43-19-79-48-114-119-150-284-3-15 2-30 13-39 4-25 2-44-6-49-15-11-35 6-42 11-8 6-17 11-26 13 0 0 0 0 0 0l-15-16-15 16c0 0 0 0 0 0-10-2-19-7-27-13-7-5-27-22-41-11-9 6-11 25-7 50 9 7 14 18 14 30 11 241-166 308-181 311l-25-26-26 26c-14-3-191-70-180-311 0-22 18-39 39-39 1 0 1 0 1 0 22 0 39 18 39 40 0 43 3 77 9 104 0 0 7 24 13 27v-61c-11-48-58-253-58-283 0-15 28-26 68-32v-187c0-26 17-47 43-47 26 0 47 21 47 47l0 180c0 0 0 0 1 0 0 0 7 0 7 0v-180c0-26 21-47 47-47 26 0 45 21 45 47v187c40 6 68 17 68 32 0 30-47 235-58 283v61c6-3 12-27 12-27 7-27 10-61 10-104-1-15 8-28 20-35-4-38 4-66 24-81 13-10 27-13 41-13 2 0 4 0 7 0 0-2-1-5-1-7v-94c0-7 3-17 5-23 0-1 0-198 0-198 0-15 12-28 28-28s28 13 28 28v166l1 0v0l2 0 1 0v0l1 0v-166c0-15 13-28 28-28 16 0 29 13 29 28 0 0 0 197 0 198 2 6 4 16 4 23v94c0 2 0 5 0 7 2 0 4 0 6 0 14 0 29 3 41 13 20 15 28 42 24 80 3 1 5 3 7 5 6 5 11 12 13 21 12 54 23 93 35 131v-126c0-12 3-25 8-35l-1-392c0-26 21-47 47-47 26 0 47 21 47 47v337l7-1v-336c0-26 21-47 47-47s47 21 47 47l0 392c5 10 8 22 8 35v126c0 0 20-34 11-114-3-22 13-41 35-44 2 0 3 0 4 0 20 0 38 16 40 36 18 179-77 265-140 299z m-55-266c-6 0-12 5-12 12 0 6 6 12 12 12 7 0 12-6 12-12 0-7-5-12-12-12z m0 37c-6 0-12 6-12 12 0 7 6 12 12 12 7 0 12-5 12-12 0-6-5-12-12-12z m0 36c-6 0-12 5-12 12s6 12 12 12c7 0 12-5 12-12s-5-12-12-12z m2 47l-18 102 16 16 18-16-16-102z m-298-205c0 0 1 0 2 0 0 0 0 0 0 0 0 0 0 0 0 0 0 0 1 0 2 0 33 1 59 28 59 61 0 34-26 61-59 62v0c-1 0-2 0-2 0 0 0 0 0 0 0 0 0 0 0 0 0-1 0-2 0-2 0v0c-34-1-60-28-60-62 0-33 26-60 60-61z" horiz-adv-x="1000" />

<glyph glyph-name="039-towel" unicode="&#xe81a;" d="M727 741h-472c-42 0-78-23-98-56h49c13 11 30 18 49 18 41 0 75-34 75-75v-650c0-11 9-19 19-19h472c10 0 19 8 19 19v650c0 62-51 113-113 113z m0-38c41 0 75-34 75-75v-419h-434v419c0 29-11 55-29 75h388v0z m-359-515h434v-38h-434v38z m0-191v56h434v-56h-434z m-113 320h-76v254h-37v-273c0-10 8-18 18-18h95c10 0 19 8 19 18 0 11-9 19-19 19z m696 360c-16 0-31-8-40-21h-56c2-9 4-18 4-28v-28h52c9-13 24-21 40-21 27 0 49 22 49 49 0 27-22 49-49 49z m-862-21c-9 13-24 21-40 21-27 0-49-22-49-49 0-27 22-49 49-49 16 0 31 8 40 21h222v28c0 10-3 20-7 28h-215z" horiz-adv-x="1000" />

<glyph glyph-name="building-2" unicode="&#xe81b;" d="M983-50h-50v883c0 10-6 17-16 17h-834c-10 0-16-7-16-17v-883h-50c-10 0-17-7-17-17v-66c0-10 7-17 17-17h966c10 0 17 7 17 17v66c0 10-7 17-17 17z m-883 867h800v-867h-250v183c0 10-7 17-17 17h-133-133c-10 0-17-7-17-17v-183h-250v867z m283-867v167h100v-167h-100z m134 167h100v-167h-100v167z m450-234h-934v34h50 284 133 133 284 50v-34z m-650 884h-134c-10 0-16-7-16-17v-100c0-10 6-17 16-17h134c10 0 16 7 16 17v100c0 10-6 17-16 17z m-17-100h-100v66h100v-66z m17-84h-134c-10 0-16-6-16-16v-100c0-10 6-17 16-17h134c10 0 16 7 16 17v100c0 10-6 16-16 16z m-17-100h-100v67h100v-67z m133-33h134c10 0 16 7 16 17v100c0 10-6 16-16 16h-134c-10 0-16-6-16-16v-100c0-10 6-17 16-17z m17 100h100v-67h-100v67z m233-100h134c10 0 16 7 16 17v100c0 10-6 16-16 16h-134c-10 0-16-6-16-16v-100c0-10 6-17 16-17z m17 100h100v-67h-100v67z m-267-283h134c10 0 16 6 16 16v100c0 10-6 17-16 17h-134c-10 0-16-7-16-17v-100c0-10 6-16 16-16z m17 100h100v-67h-100v67z m233-100h134c10 0 16 6 16 16v100c0 10-6 17-16 17h-134c-10 0-16-7-16-17v-100c0-10 6-16 16-16z m17 100h100v-67h-100v67z m-383 33h-134c-10 0-16-7-16-17v-100c0-10 6-16 16-16h134c10 0 16 6 16 16v100c0 10-6 17-16 17z m-17-100h-100v67h100v-67z m133 333h134c10 0 16 7 16 17v100c0 10-6 17-16 17h-134c-10 0-16-7-16-17v-100c0-10 6-17 16-17z m17 100h100v-66h-100v66z m233-100h134c10 0 16 7 16 17v100c0 10-6 17-16 17h-134c-10 0-16-7-16-17v-100c0-10 6-17 16-17z m17 100h100v-66h-100v66z m-300-550h200c10 0 17 7 17 17 0 10-7 17-17 17h-200c-10 0-17-7-17-17 0-10 7-17 17-17z" horiz-adv-x="1000" />

<glyph glyph-name="042-exercise" unicode="&#xe81c;" d="M875 620c-8 13-26 15-37 5-44-40-47-43-59-54l-62 8-7-17c8-16 9-36 3-53l13-2c-17-23-31-47-43-73-2-39 2-79 11-118 14 67 44 130 87 184l25-4c19-3 37 11 39 30 2 12-2 23-10 30l35 33c9 8 11 21 5 31z m-187 30c-13 4-27-2-31-15l-13-33c17 1 34-5 46-15l12 31c5 13-2 27-14 32z m34-719c40 10 69 45 69 88 0 16-4 31-12 44-8 15-19 26-33 35l-60 154c-27 67-36 139-28 210-2 0 1 0-49-5-7-75 4-152 32-223l47-122-30 4-29 73-7-68-90 12c-7-11-16-20-27-26l15-1c14-1 26-12 27-27 1-17-13-30-29-29-12 0-89 4-99 4-16 1-28 14-27 30 0 13 11 27 32 26-14 10-25 25-29 41l-50 7 25 76c1 5 2 11 1 16l-8 84c-78 14-76 14-83 16l9-99-25-79c-79-5-143-72-143-153 0-45 20-85 50-113l-22-23c-7-6-8-17-3-25 8-10 21-11 30-2l28 27c21-11 45-17 70-17 23 0 400 58 400 58l68-68c7-8 19-8 27 0 8 7 8 19 0 27l-47 48z m-356 83c-3-46-40-84-87-86-54-3-99 42-96 96 2 46 40 84 87 86 54 3 98-41 96-96z m174 827c-42 22-93 2-109-42-13-36 3-78 37-95 42-22 92-2 109 42 13 36-3 77-37 95z m103-274l-121-14-73 88c15-12 39-28 73-52l89 10c0 0-130 57-209 91-24 11-53-4-64-32-8-20-68-179-78-205-10-28 0-59 25-68 8-5 0-2 159-32l-19-176c-2-25 17-47 42-47 22 0 40 17 42 38l24 215c2 22-13 42-35 46l-67 12 17 41c-6 12-48 102-53 113l85-102c8-8 19-13 31-12l139 16c18 2 32 17 32 35 0 21-19 37-39 35z" horiz-adv-x="1000" />

<glyph glyph-name="011-aeroplane" unicode="&#xe81d;" d="M998 763l-2 18c-4 37-34 65-72 68l-15 1c-45 2-89-15-122-47l-150-150-495 1c-41 0-82-17-112-47l-21-21c-6-7-9-18-7-28 3-9 9-17 19-19l393-108-92-91-166-6c-17 0-33-7-45-20l-16-16c-6-7-9-17-7-26 2-10 9-16 18-20l211-80 85-219c3-10 12-16 21-17 10-1 18 2 25 9l17 17c11 12 18 27 20 46l5 167 93 90 106-394c3-10 11-17 20-20 3-1 5-1 8-1 7 0 15 3 21 8l20 21c30 30 47 71 47 113v495l147 147c35 34 52 82 46 129z m-73-103l-153-152c-3-4-5-9-5-14v-502c0-33-13-63-36-86l-10-10-112 409c-2 6-6 11-13 13-2 0-3 1-5 1-4 0-9-2-13-6l-121-119c-3-3-5-7-5-13l-6-173c0-6-2-15-8-20l-7-7-82 212c-2 5-6 9-11 11l-205 78 6 6c2 3 10 8 19 8l175 6c5 0 9 2 12 6l120 119c5 5 7 12 5 18-2 7-7 12-14 13l-409 113 9 9c23 23 54 36 86 36l502-1c5 0 10 2 13 6l157 155c24 25 58 38 93 36l15-1c19-1 34-16 36-34l2-18c4-36-8-72-35-99z" horiz-adv-x="1000" />

<glyph glyph-name="047-mosque-1" unicode="&#xe81e;" d="M693 325h-7c-12 69-14 139-55 179-40 39-92 51-127 83v15c3 1 5 5 5 8 0 4-2 7-5 9v6c1 1 1 2 1 4 0 3-5 18-5 18s-5-15-5-18c0-2 0-3 1-4v-6c-3-2-5-5-5-9 0-3 2-7 5-8v-15c-35-32-87-44-127-83-41-40-43-110-54-179h-8l-13-33h412l-13 33z m-614-59v-416h298v223c0 54 123 90 123 90s123-36 123-90v-223h299v416h-843z m711 27h111v137h11v35h-21v133h21v35h-33v87c0 16-12 29-27 32v22c6 3 9 8 9 14s-3 12-9 15v10c2 2 2 4 2 6 0 5-9 31-9 31s-9-26-9-31c0-2 1-4 3-6v-10c-6-3-9-8-9-15s3-11 9-14v-22c-15-3-27-16-27-32v-87h-33v-35h21v-133h-21v-35h11v-137z m-691 0h112v137h10v35h-21v133h21v35h-33v87c0 16-11 29-26 32v22c5 3 9 8 9 14s-4 12-9 15v10c1 2 2 4 2 6 0 5-9 31-9 31s-9-26-9-31c0-2 1-4 2-6v-10c-5-3-9-8-9-15s4-11 9-14v-22c-15-3-26-16-26-32v-87h-34v-35h21v-133h-21v-35h11v-137z" horiz-adv-x="1000" />

<glyph glyph-name="027-shower-3" unicode="&#xe81f;" d="M423 558c-9 26-34 43-62 43l-270 0c-27 0-52-16-62-42l-26-66 444 0z m0 0m-113 92c-11 23-35 38-60 38l-50 0c-25 0-48-15-59-38l-8-16 184 0z m0 0m-293-225c-9 0-17-8-17-17l0-80c0-9 8-16 17-16 9 0 16 7 16 16l0 80c0 9-7 17-16 17z m0 0m103 0c-9 0-16-8-16-17l0-80c0-9 7-16 16-16 10 0 17 7 17 16l0 80c0 9-7 17-17 17z m0 0m104 0c-9 0-16-8-16-17l0-80c0-9 7-16 16-16 9 0 17 7 17 16l0 80c0 9-8 17-17 17z m0 0m106 0c-9 0-17-8-17-17l0-80c0-9 8-16 17-16 9 0 17 7 17 16l0 80c0 9-8 17-17 17z m0 0m120-97l0 80c0 9-7 17-16 17-9 0-17-8-17-17l0-80c0-9 8-16 17-16 9 0 16 7 16 16z m0 0m326-445l-145 0 0 820c0 81-66 147-147 147l-131 0c-81 0-147-66-147-147l33 0c0 63 52 114 114 114l131 0c63 0 114-51 114-114l0-820-144 0c-9 0-16-7-16-16 0-10 7-17 16-17l322 0c9 0 17 7 17 17 0 9-8 16-17 16z m0 0" horiz-adv-x="1000" />

<glyph glyph-name="escalator" unicode="&#xe820;" d="M1000 528c-2 72-65 130-138 130h-185c-22 0-44-10-57-26l-153-182v75c0 43-23 80-56 100 33 20 56 57 56 100 0 65-52 117-117 117-65 0-117-52-117-117 0-43 23-80 57-100-34-20-57-57-57-100v-351l-36-44c-2-3-7-5-12-5h-47c-74 0-136-58-138-130-2-35 12-70 39-97 25-25 58-40 94-40h157c22 0 43 10 57 27l415 500c5 3 10 7 16 7h89c36 0 70 15 95 40 26 26 40 60 38 96z m-733 197c0 47 36 83 83 83s83-36 83-83c0-47-36-83-83-83s-83 36-83 83z m0-512v312c0 47 36 83 83 83s83-36 83-83v-115l-91-107-75-90z m671 242c-18-20-45-30-71-30h-89c-16 0-31-8-41-20l-415-498c-9-10-20-15-32-15h-157c-26 0-53 10-71 30-18 20-28 46-28 73 1 53 48 97 104 97h47c15 0 28 6 38 18l422 500c8 10 20 15 32 15h185c56 0 103-43 105-97 0-28-10-53-29-73z m-107-238c-3 5-8 8-14 8s-12-3-15-8l-114-114c-6-6-6-16 0-23 7-7 17-7 24 0l88 88v-293c0-10 7-17 17-17s16 7 16 17v293l89-88c3-3 6-5 11-5s9 2 12 5c7 7 7 17 0 23l-114 114z" horiz-adv-x="1000" />

<glyph glyph-name="020-champagne-glass-with-drink" unicode="&#xe821;" d="M669 545v305h-338v-305c0-155 93-220 145-237v-371c-39-2-68-10-68-20 0 0 0-1 0-2-42-6-70-17-70-29 0-20 73-36 164-36 91 0 165 16 165 36 0 12-30 23-75 30 0 0 1 1 1 1 0 9-28 17-65 20v373c53 18 141 84 141 235z m-306 0v273h274v-273c0-168-120-209-137-209-17 0-137 41-137 209z m248-12v118c0 0-59-30-110 0-51 30-112 0-112 0v-118c0-134 96-163 111-163 15 0 111 29 111 163z" horiz-adv-x="1000" />

<glyph glyph-name="046-mosque" unicode="&#xe822;" d="M710 7h-11c-18 105-21 213-84 274-61 60-141 79-195 128v22c5 3 9 8 9 14 0 5-4 10-9 13v9c2 2 3 4 3 6 0 4-9 28-9 28s-8-24-8-28c0-2 1-4 2-6v-9c-5-3-8-8-8-13 0-6 3-11 8-14v-22c-53-49-133-68-195-128-62-61-65-169-83-274h-12l-20-51h632l-20 51z m-497 2h-23v33h23v-33z m71 0h-23v33h23v-33z m71 0h-23v33h23v-33z m70 0h-22v33h22v-33z m71 0h-22v33h22v-33z m71 0h-22v33h22v-33z m71 0h-22v33h22v-33z m243 196v25l-27 23-34-30-35 30-26-23v-25h-44v-81h32v-195h-671v-79h671 5 141v274h31v81h-43z m-32-263h-59v80h8v31l22 21 21-21v-31h8v-80z m-109 451l19-57v-23l26 23 35-29 34 29 27-23v23l18 57h-18v231l18 57h-49v50c0 15-10 27-24 30v20c5 2 8 7 8 13 0 6-3 10-8 13v9c1 2 2 4 2 6 0 4-8 28-8 28s-9-24-9-28c0-2 1-4 2-6v-9c-4-3-8-7-8-13 0-6 4-11 8-13v-20c-13-3-24-15-24-30v-50h-49l19-57v-231h-19z m63 199h5v18l12 12 12-12v-18h4v-45h-33v45z m0-107h5v18l12 12 12-12v-18h4v-45h-33v45z" horiz-adv-x="1000" />

<glyph glyph-name="hotel-1" unicode="&#xe823;" d="M983-117h-16v650c0 10-7 17-17 17h-250v283c0 10-7 17-17 17h-366c-10 0-17-7-17-17v-283h-250c-10 0-17-7-17-17v-650h-16c-10 0-17-6-17-16s7-17 17-17h33 267 83 200 83 267 33c10 0 17 7 17 17s-7 16-17 16z m-916 634h233v-634h-233v634z m266 16v284h334v-284-650h-50v150c0 10-7 17-17 17h-200c-10 0-17-7-17-17v-150h-50v650z m84-516h66v-134h-66v134z m100-134v134h66v-134h-66z m183 0v634h233v-634h-233z m-317 600h67c10 0 17 7 17 17v83h66v-83c0-10 7-17 17-17h67c10 0 16 7 16 17v267c0 10-6 16-16 16h-67c-10 0-17-6-17-16v-84h-66v84c0 10-7 16-17 16h-67c-10 0-16-6-16-16v-267c0-10 6-17 16-17z m17 267h33v-83c0-10 7-17 17-17h100c10 0 17 7 17 17v83h33v-233h-33v83c0 10-7 17-17 17h-100c-10 0-17-7-17-17v-83h-33v233z m-150-267h-133c-10 0-17-6-17-16v-67c0-10 7-17 17-17h133c10 0 17 7 17 17v67c0 10-7 16-17 16z m-17-66h-100v33h100v-33z m350 33h-166c-10 0-17-7-17-17v-66c0-10 7-17 17-17h166c10 0 17 7 17 17v66c0 10-7 17-17 17z m-16-67h-134v34h134v-34z m16-66h-166c-10 0-17-7-17-17v-67c0-10 7-16 17-16h166c10 0 17 6 17 16v67c0 10-7 17-17 17z m-16-67h-134v33h134v-33z m16-67h-166c-10 0-17-6-17-16v-67c0-10 7-17 17-17h166c10 0 17 7 17 17v67c0 10-7 16-17 16z m-16-66h-134v33h134v-33z m-317 233h-133c-10 0-17-7-17-17v-66c0-10 7-17 17-17h133c10 0 17 7 17 17v66c0 10-7 17-17 17z m-17-67h-100v34h100v-34z m17-66h-133c-10 0-17-7-17-17v-67c0-10 7-16 17-16h133c10 0 17 6 17 16v67c0 10-7 17-17 17z m-17-67h-100v33h100v-33z m17-67h-133c-10 0-17-6-17-16v-67c0-10 7-17 17-17h133c10 0 17 7 17 17v67c0 10-7 16-17 16z m-17-66h-100v33h100v-33z m650 466h-133c-10 0-17-6-17-16v-67c0-10 7-17 17-17h133c10 0 17 7 17 17v67c0 10-7 16-17 16z m-16-66h-100v33h100v-33z m16-67h-133c-10 0-17-7-17-17v-66c0-10 7-17 17-17h133c10 0 17 7 17 17v66c0 10-7 17-17 17z m-16-67h-100v34h100v-34z m16-66h-133c-10 0-17-7-17-17v-67c0-10 7-16 17-16h133c10 0 17 6 17 16v67c0 10-7 17-17 17z m-16-67h-100v33h100v-33z m16-67h-133c-10 0-17-6-17-16v-67c0-10 7-17 17-17h133c10 0 17 7 17 17v67c0 10-7 16-17 16z m-16-66h-100v33h100v-33z" horiz-adv-x="1000" />

<glyph glyph-name="043-barbell" unicode="&#xe824;" d="M620 470c-7 8-20 8-27 0-8-7-8-20 0-27 7-8 20-8 27 0 8 7 8 20 0 27z m357-2l-27 28c1 1 31 26 31 71 0 26-11 51-29 69l-14 14 14 14c38 38 38 100 0 138-38 38-100 38-138 0l-14-14-14 14c-38 38-100 38-138 0l-2-2-28 27c-30 31-80 31-110 0-31-30-31-80 0-110l110-111-374-374-111 110c-30 31-80 31-110 1-31-31-31-80 0-111l28-28-3-2c-38-38-38-100 0-138l14-14-14-14c-38-38-38-100 0-138 38-38 100-38 138 0l14 14 14-14c38-38 100-38 138 0l2 2 28-27c31-31 80-31 110 0 31 30 31 80 0 110l-110 111 374 374 111-110c30-31 80-31 110 0 31 30 31 80 0 110z m-136 306c23 23 60 23 83 0 23-23 23-60 0-83l-14-13-82 82 13 14z m-165 0c23 23 60 23 83 0l165-165c23-23 23-60 0-83l-2-3-249 249 3 2z m-517-848c-23-23-60-23-83 0-23 23-23 60 0 83l14 13 82-82-13-14z m165 0c-22-23-60-23-82 0l-166 166c-23 22-23 60 0 82l2 3 249-249-3-2z m141 30c15-16 15-40 0-56-15-15-40-15-55 0-17 17-342 342-359 360-16 15-16 39 0 55 15 15 40 15 55 0l359-359z m-111 166l-82 82 374 375 83-83-375-374z m596 263c-16-15-40-15-56 0l-359 359c-15 16-15 40 0 56 16 15 40 15 55 0 18-18 343-343 360-360 15-15 15-39 0-55z m-385 30c-7 8-20 8-27 0l-158-158c-8-7-8-20 0-27 7-8 20-8 27 0l158 158c8 7 8 20 0 27z" horiz-adv-x="1000" />

<glyph glyph-name="040-bathrobe" unicode="&#xe825;" d="M953 270l-86 333c-2 7-4 14-5 20-7 29-14 59-30 85-50 83-147 137-249 142-4 0-8 0-13 0h-138c-5 0-10 0-15 0-101-5-198-59-249-142-16-26-23-56-30-85-1-6-3-13-5-20l-86-333c-7-27 8-55 35-62l65-16c26-7 55 8 61 35l70 255c2 3 5 1 5 0v-132c-18 0-33-15-33-33v-34c0-18 15-33 33-33v-350c0-28 22-50 50-50h334c28 0 50 22 50 50v350c18 0 33 15 33 33v34c0 18-15 33-33 33v132c0 1 5 1 5 0l70-255c6-22 26-37 48-37 5 0 8 2 13 2l65 16c27 9 42 35 35 62z m-385 547c1 0 1 0 2 0l-70-254-68 254h136z m-18-500v-50-50h-33v100h33z m-67-117v-50h-33v117 50h13 4 16v-117z m-201 320c-17 0-30-12-35-27l-70-255c-2-8-12-13-20-11l-65 16c-9 2-14 12-12 20l87 334c1 6 3 13 5 20 6 26 11 51 25 75 41 66 117 113 200 123l85-316-29-149h-20-116v135c0 18-15 35-35 35z m1-203h17 117v-34h-117-17v34z m400-417c0-10-6-17-16-17h-334c-10 0-16 7-16 17v350h100v-100c0-18 15-33 33-33h33c19 0 34 15 34 33v33h33c18 0 33 15 33 34v33h100v-350z m34 383h-17-117v34h117 17v-34z m191-43l-65-17c-8-1-18 4-20 12l-70 255c-5 17-18 27-35 27-18 0-35-17-35-35v-132h-116-67-13l30 147 86 318c83-11 159-58 199-127 13-21 20-48 26-75 2-6 4-13 5-20l87-333c2-8-3-18-12-20z" horiz-adv-x="1000" />

<glyph glyph-name="032-hair-dryer-1" unicode="&#xe826;" d="M950 267h-50v33h50c9 0 17 8 17 17s-8 16-17 16h-50v17c0 9-7 17-16 17h-117c-9 0-17-8-17-17v-51c-60-8-100-59-100-132v-242c0-14-11-25-25-25-14 0-25 11-25 25v317c0 32-26 58-58 58-32 0-58-26-58-58v-275c-1-46-38-84-84-84h-16c-40 0-74 28-82 67h98c9 0 17 7 17 17 0 0 0 0 0 0l-16 372c93 39 157 127 165 228l303 15c27 1 48 23 48 50v152c0 27-22 50-49 50l-558 16h-1c-120 1-226-76-264-190-45-147 44-273 154-321l-14-167c-1-1-1-3-1-5 0-1 0-2 0-3l-17-196c-1-9 6-17 15-18 1 0 1 0 2 0h84c8-57 58-100 116-100h16c65 0 117 52 117 117v275c0 14 11 25 25 25 14 0 25-11 25-25v-317c0-32 26-58 58-58 32 0 59 26 59 58v242c0 41 17 89 66 98v-48c0-9 8-17 17-17h117c9 0 16 8 16 17v16h50c9 0 17 8 17 17s-8 17-17 17z m-183 537l100-3c9 0 17-8 17-17v-152c0-9-7-16-16-17l-101-5v194z m-565-821l3 34h79c9 0 16 7 16 16s-7 17-16 17h-76l2 33h74c9 0 16 8 16 17s-7 17-16 17h-71l3 33h68c9 0 16 8 16 17s-7 16-16 16h-65l3 34h62c9 0 16 7 16 16s-7 17-16 17h-59l3 33h56c9 0 16 8 16 17s-7 17-16 17h-53l3 32c0 7-4 14-11 17-101 38-187 151-146 284 33 100 127 168 232 167l425-12v-196l-185-9c-9 0-15-8-15-17-3-97-65-184-156-217-7-3-11-10-11-17l16-366h-181z m665 250h-83v100h83v-100z m-567 500c-83 0-150-67-150-150 0-82 67-150 150-150s150 68 150 150c0 83-67 150-150 150z m0-266c-64 0-116 52-116 116 0 65 52 117 116 117 65 0 117-52 117-117 0-64-52-116-117-116z" horiz-adv-x="1000" />

<glyph glyph-name="045-muslim-mosque" unicode="&#xe827;" d="M363 296v-39c0-11-9-19-20-19h-102c-10 0-19 8-19 19v39c0 11 9 20 19 20h102c11 0 20-9 20-20z m396 20h-102c-11 0-20-9-20-20v-39c0-11 9-20 20-20h102c10 0 19 9 19 20v39c0 11-9 20-19 20z m-416-139h-102c-10 0-19-8-19-19v-40c0-10 9-19 19-19h102c11 0 20 9 20 19v40c0 11-9 19-20 19z m416 0h-102c-11 0-20-8-20-19v-40c0-10 9-19 20-19h102c10 0 19 9 19 19v40c0 11-9 19-19 19z m241-140c0-12-10-22-23-22h-954c-13 0-23 10-23 22 0 13 10 23 23 23h99v322 103c0 12 10 22 23 22h149c58 110 189 173 196 176 6 3 14 3 20 0 7-3 138-66 196-176h149c13 0 23-10 23-22v-103-322h99c13 0 23-10 23-23z m-687 368h374c0 124-147 211-187 232-39-21-186-108-187-232z m520-345v299h-123-420-123v-299h240v217c0 23 19 42 42 42h102c23 0 42-19 42-42v-217h240z" horiz-adv-x="1000" />

<glyph glyph-name="hotel" unicode="&#xe828;" d="M433 434c0 10-7 16-17 16h-100c-10 0-16-6-16-16v-467c0-10 6-17 16-17h100c10 0 17 7 17 17v167h134v-167c0-10 6-17 16-17h100c10 0 17 7 17 17v467c0 10-7 16-17 16h-100c-10 0-16-6-16-16v-167h-134v167z m150-200c10 0 17 6 17 16v167h67v-434h-67v167c0 10-7 17-17 17h-167c-10 0-16-7-16-17v-167h-67v434h67v-167c0-10 6-16 16-16h167z m377 180l-420 420c-22 21-59 21-80 0l-419-420c-23-22-25-57-5-80 10-12 25-20 42-20h2c15 0 30 6 40 16l13 14v-444c0-28 22-50 50-50h634c28 0 50 22 50 50v444l13-14c12-11 27-16 43-16s32 6 42 20c18 23 17 58-5 80z m-127-37v-477c0-10-6-17-16-17h-634c-10 0-17 7-17 17v477l317 317c9 10 24 10 34 0l316-317z m107-22c-5-5-12-8-18-8-7-2-14 2-19 7l-363 363c-22 22-59 22-80 0l-322-322-42-41c-5-5-11-7-18-7-7 0-13 3-18 8-9 10-7 25 3 35l420 420c5 5 10 7 17 7s12-2 17-7l420-420c10-10 11-25 3-35z" horiz-adv-x="1000" />

<glyph glyph-name="bathrobe" unicode="&#xe829;" d="M953 270l-86 333c-2 7-4 14-5 20-7 29-14 59-30 85-50 83-147 137-249 142-4 0-8 0-13 0h-138c-5 0-10 0-15 0-101-5-198-59-249-142-16-26-23-56-30-85-1-6-3-13-5-20l-86-333c-7-27 8-55 35-62l65-16c26-7 55 8 61 35l70 255c2 3 5 1 5 0v-132c-18 0-33-15-33-33v-34c0-18 15-33 33-33v-350c0-28 22-50 50-50h334c28 0 50 22 50 50v350c18 0 33 15 33 33v34c0 18-15 33-33 33v132c0 1 5 1 5 0l70-255c6-22 26-37 48-37 5 0 8 2 13 2l65 16c27 9 42 35 35 62z m-385 547c1 0 1 0 2 0l-70-254-68 254h136z m-18-500v-50-50h-33v100h33z m-67-117v-50h-33v117 50h13 4 16v-117z m-201 320c-17 0-30-12-35-27l-70-255c-2-8-12-13-20-11l-65 16c-9 2-14 12-12 20l87 334c1 6 3 13 5 20 6 26 11 51 25 75 41 66 117 113 200 123l85-316-29-149h-20-116v135c0 18-15 35-35 35z m1-203h17 117v-34h-117-17v34z m400-417c0-10-6-17-16-17h-334c-10 0-16 7-16 17v350h100v-100c0-18 15-33 33-33h33c19 0 34 15 34 33v33h33c18 0 33 15 33 34v33h100v-350z m34 383h-17-117v34h117 17v-34z m191-43l-65-17c-8-1-18 4-20 12l-70 255c-5 17-18 27-35 27-18 0-35-17-35-35v-132h-116-67-13l30 147 86 318c83-11 159-58 199-127 13-21 20-48 26-75 2-6 4-13 5-20l87-333c2-8-3-18-12-20z" horiz-adv-x="1000" />

<glyph glyph-name="035-massage-spa-body-treatment" unicode="&#xe82a;" d="M651-96h-651v61c12-10 27-15 43-15h563l45-46z m-369 892c-35 0-63-29-63-63 0-22 10-41 27-53 7 20 19 39 34 54s34 27 54 34c-11 17-30 28-52 28z m-18-166c0-67 54-120 120-120 67 0 121 54 121 120 0 67-54 121-121 121-14 0-27-3-40-7-34-12-61-39-73-74-5-12-7-26-7-40z m-66-166c-28-63-90-223-106-263h210c4 11 9 22 15 33 20 37 82 55 67 106 0 1 0 1 0 2l55-53c4-4 9-7 14-9l152-57c5-2 10-3 15-3 18 0 34 10 41 28 8 22-3 47-25 56l-134 51c-6 2-12 6-17 11 0 0-118 111-118 111-5 5-11 8-18 10-2 1-3 1-5 2-2 0-4 1-6 1-29 8-62 15-92 12-10-1-21-3-29-9-10-7-14-19-19-29z m-155-488h574l55-56c5-5 12-9 18-12 7-2 14-4 21-4h234c31 0 55 25 55 56 0 30-25 53-55 53h-211l-143 146c-11 11-18 16-38 16-34 0-510-1-510-1-24 0-43-19-43-43v-100-11c0-24 19-44 43-44z m878 200c0 69-56 125-125 125s-125-56-125-125c0-69 56-125 125-125s125 56 125 125z" horiz-adv-x="1000" />

<glyph glyph-name="doorknob-1" unicode="&#xe82b;" d="M535 849c-65 5-127-16-175-60-46-43-75-105-76-168 0-35 21-65 54-71 20-4 40 1 55 15s24 31 24 51c0 30 13 58 36 78 24 19 54 27 84 20 40-8 71-40 78-80 7-41-10-81-45-103-53-35-183-96-236-121-49-22-80-67-84-115 0-4 0-9 0-12v-350c0-46 37-83 84-83h333c46 0 83 37 83 83v677c0 121-98 229-215 239z m183-917c0-29-21-50-50-50h-333c-28 0-50 21-50 50v349c0 4 0 7 0 10 4 39 27 72 63 89 67 31 187 90 240 123 47 30 70 83 60 136-10 54-51 97-105 107-8 2-18 3-26 3-30 0-60-10-85-30-30-26-49-63-49-103 0-10-5-20-11-26-9-7-19-9-29-7-14 3-26 18-26 37 2 56 25 106 65 144 41 37 95 55 150 52 100-8 185-102 186-206v-678z m-301 251h166c10 0 17 7 17 17 0 10-7 16-17 16h-166c-10 0-17-6-17-16 0-10 7-17 17-17z m100-33c-10 0-17-7-17-17s7-16 17-16h83c10 0 17 6 17 16s-7 17-17 17h-83z m-67-33c10 0 17 6 17 16s-7 17-17 17h-50c-10 0-17-7-17-17s7-16 17-16h50z m50-34h-83c-10 0-17-6-17-16 0-10 7-17 17-17h83c10 0 17 7 17 17 0 10-7 16-17 16z m83 0h-16c-10 0-17-6-17-16 0-10 7-17 17-17h16c10 0 17 7 17 17 0 10-7 16-17 16z m-83 230c-102 0-183-82-183-183 0-102 81-183 183-183s183 81 183 183c0 101-81 183-183 183z m0-333c-83 0-150 67-150 150s67 150 150 150 150-67 150-150-67-150-150-150z" horiz-adv-x="1000" />

<glyph glyph-name="beds" unicode="&#xe82c;" d="M948 434v92c0 46-36 83-81 83h-215c-47 0-83-37-83-83v-92c-30-8-52-35-52-67v-86-155c0-19 16-35 35-35h34c19 0 35 16 35 35v34h276v-34c0-19 15-35 34-35h35c19 0 34 16 34 35v155 86c0 32-22 59-52 67z m-345 92c0 27 21 48 49 48h214c27 0 48-21 48-48v-90h-19c-8 59-58 104-119 104h-35c-61 0-111-45-119-104h-19v90z m257-90h-203c9 40 43 69 84 69h35c41 0 76-29 84-69z m-308-69c0 19 15 35 34 35h52 241 52c19 0 35-16 35-35v-69h-414v69z m414-241h-35v52c0 10-7 17-17 17h-311c-8 0-17-7-17-17v-52h-34v138h414v-138z m-535 308v92c0 46-36 83-81 83h-215c-47 0-83-37-83-83v-92c-30-8-52-35-52-67v-86-155c0-19 16-35 35-35h34c19 0 34 16 34 35v34h276v-34c0-19 16-35 35-35h34c19 0 35 16 35 35v155 86c0 32-22 59-52 67z m-345 92c0 27 21 48 49 48h213c28 0 49-21 49-48v-90h-19c-8 59-58 104-119 104h-35c-61 0-111-45-119-104h-19v90z m257-90h-203c8 40 43 69 84 69h35c41 0 76-29 84-69z m-308-69c0 19 15 35 34 35h52 241 52c19 0 34-16 34-35v-69h-413v69z m413-241h-34v52c0 10-7 17-17 17h-311c-8 0-17-7-17-17v-52h-34v138h413v-138z" horiz-adv-x="1000" />

<glyph glyph-name="cutlery" unicode="&#xe82d;" d="M425 850c-10 0-17-7-17-17v-233c0-31-21-57-50-64v297c0 10-6 17-16 17s-17-7-17-17v-297c-29 7-50 33-50 64v233c0 10-7 17-17 17s-16-7-16-17v-233c0-49 36-91 83-99v-151c-47 0-83-37-83-83v-334c0-46 36-83 83-83h33c47 0 84 37 84 83v334c0 46-37 83-84 83v151c48 8 84 50 84 99v233c0 10-7 17-17 17z m-17-583v-334c0-28-21-50-50-50h-33c-28 0-50 22-50 50v334c0 28 22 50 50 50h33c29 0 50-22 50-50z m250-150c-10 0-16-7-16-17s6-17 16-17 17 7 17 17-7 17-17 17z m50 226v474c0 18-15 33-33 33-27 0-52-13-68-33-32-40-49-89-49-140v-124c0-74 20-144 57-207-33-11-57-42-57-79v-334c0-46 37-83 84-83h33c47 0 83 37 83 83v334c0 34-20 64-50 76z m-116 334c0 43 15 86 41 120 10 13 25 20 42 20v-467h-23c-40 62-60 132-60 203v124z m133-744c0-28-22-50-50-50h-33c-29 0-50 22-50 50v334c0 28 21 50 50 50h33c28 0 50-22 50-50v-334z m-383 184c-10 0-17-7-17-17s7-17 17-17 16 7 16 17-6 17-16 17z" horiz-adv-x="1000" />

<glyph glyph-name="elevator-1" unicode="&#xe82e;" d="M733 850h-466c-29 0-50-22-50-50v-900c0-28 21-50 50-50h466c29 0 50 22 50 50v900c0 28-21 50-50 50z m17-950c0-10-7-17-17-17h-466c-10 0-17 7-17 17v900c0 10 8 17 17 17h466c10 0 17-7 17-17v-900z m-250 317c73 0 133 60 133 133 0 73-60 133-133 133-73 0-133-60-133-133s60-133 133-133z m0 233c55 0 100-45 100-100 0-55-45-100-100-100-55 0-100 45-100 100 0 55 45 100 100 100z m33 300c-8 10-20 17-33 17-13 0-25-7-33-17l-110-147c-9-10-9-23-4-35 5-11 17-18 30-18h234c13 0 23 7 30 18 5 12 5 25-4 35l-110 147z m-150-167l110 147c2 3 5 3 7 3s5 0 7-3l110-147h-234z m234-433h-234c-11 0-23-7-30-18-5-12-5-25 4-35l110-147c8-10 20-17 33-17 13 0 25 5 33 15l110 149c9 10 9 23 4 35s-17 18-30 18z m-110-180c-4-3-5-3-7-3s-3 0-7 1l-110 149h234l-110-147z" horiz-adv-x="1000" />

<glyph glyph-name="coffee" unicode="&#xe82f;" d="M947 510c-35 32-78 48-126 45l-24-2c-91-4-176-32-248-78-38 154-148 275-295 328-41 15-86 16-126-1-5 0-10-2-13-6-40-20-69-54-84-96l-8-22c-78-244 50-522 284-616 6-4 13-6 20-8 2-46 21-90 55-122 31-30 71-47 115-47 1 0 5 0 6 0l27 5c257 20 468 243 470 497 0 47-20 92-53 123z m-705 263c141-52 244-169 279-317-95-71-163-175-186-294-61 66-71 157-30 260 60 152 14 279-132 360 5 0 11 1 16 1 18 0 35-4 53-10z m-187-105l6 22c13 34 36 61 66 78 155-73 206-188 149-334-52-127-33-237 53-314-1-10-2-21-2-32-2 2-5 2-7 3-217 89-337 348-265 577z m305-602c0 1 0 1 0 2-1 54 8 107 27 157 0 1 0 1 0 1 1 3 2 6 3 9 64 159 221 276 407 283l24 2c3 0 5 0 8 0 33 0 65-12 89-33-6-153-95-236-255-236-2 0-2 0-2 0-162 0-263-91-285-256-10 20-16 42-16 65 0 2 0 4 0 6z m166-144l-23-2c-36-1-71 12-97 36 10 170 100 260 255 260h2c164 0 265 83 285 231 10-19 15-40 15-63-1-238-199-446-437-462z" horiz-adv-x="1000" />

<glyph glyph-name="doorknob" unicode="&#xe830;" d="M535 849c-65 5-127-16-175-60-46-43-75-105-76-168 0-35 21-65 54-71 20-4 40 1 55 15s24 31 24 51c0 30 13 58 36 78 24 19 54 27 84 20 40-8 71-40 78-80 7-41-10-81-45-103-53-35-183-96-236-121-49-22-80-67-84-115 0-4 0-9 0-12v-350c0-46 37-83 84-83h333c46 0 83 37 83 83v677c0 121-98 229-215 239z m183-917c0-29-21-50-50-50h-333c-28 0-50 21-50 50v349c0 4 0 7 0 10 4 39 27 72 63 89 67 31 187 90 240 123 47 30 70 83 60 136-10 54-51 97-105 107-8 2-18 3-26 3-30 0-60-10-85-30-30-26-49-63-49-103 0-10-5-20-11-26-9-7-19-9-29-7-14 3-26 18-26 37 2 56 25 106 65 144 41 37 95 55 150 52 100-8 185-102 186-206v-678z m-401 334v-266c0-10 7-17 16-17h334c10 0 16 7 16 17v266c0 10-6 17-16 17h-333c-10 0-17-7-17-17z m33-16h300v-233h-300v233z m250-34h-200c-10 0-17-6-17-16 0-10 7-17 17-17h200c10 0 17 7 17 17 0 10-7 16-17 16z m0-66h-83c-10 0-17-7-17-17s7-16 17-16h83c10 0 17 6 17 16s-7 17-17 17z m-200-33h50c10 0 17 6 17 16s-7 17-17 17h-50c-10 0-17-7-17-17s7-16 17-16z m117-34h-117c-10 0-17-6-17-16 0-10 7-17 17-17h117c10 0 16 7 16 17 0 10-6 16-16 16z m83 0h-17c-10 0-16-6-16-16 0-10 6-17 16-17h17c10 0 17 7 17 17 0 10-7 16-17 16z" horiz-adv-x="1000" />

<glyph glyph-name="doorknob-2" unicode="&#xe831;" d="M535 849c-65 5-127-16-175-60-46-43-75-105-76-168 0-35 21-65 54-71 20-4 40 1 55 15s24 31 24 51c0 30 13 58 36 78 24 19 54 27 84 20 40-8 71-40 78-80 7-41-10-81-45-103-53-35-183-96-236-121-49-22-80-67-84-115 0-4 0-9 0-12v-350c0-46 37-83 84-83h333c46 0 83 37 83 83v677c0 121-98 229-215 239z m183-917c0-29-21-50-50-50h-333c-28 0-50 21-50 50v349c0 4 0 7 0 10 4 39 27 72 63 89 67 31 187 90 240 123 47 30 70 83 60 136-10 54-51 97-105 107-8 2-18 3-26 3-30 0-60-10-85-30-30-26-49-63-49-103 0-10-5-20-11-26-9-7-19-9-29-7-14 3-26 18-26 37 2 56 25 106 65 144 41 37 95 55 150 52 100-8 185-102 186-206v-678z m-218 384c-102 0-183-81-183-183s81-183 183-183 183 82 183 183-81 183-183 183z m0-33c36 0 69-12 95-33l-211-212c-21 26-34 59-34 95 0 83 67 150 150 150z m0-300c-35 0-67 12-93 32l211 211c20-25 32-58 32-93 0-83-67-150-150-150z" horiz-adv-x="1000" />

<glyph glyph-name="hairdryer-1" unicode="&#xe832;" d="M925 751l70 70c6 7 6 17 0 24-7 6-17 6-24 0l-69-70c-44 39-99 66-160 73-42 5-84 2-124-12-181-58-343-86-498-86h-20c-55 0-100-45-100-100v-200c0-55 45-100 100-100h50 39c83 0 170-9 261-27l-378-378c-7-7-7-17 0-23 3-4 7-5 12-5s8 1 11 5l393 392c11-2 21-4 32-7l-95-254c-28-76 12-165 88-193 19-7 35-10 54-10 60 0 118 37 138 97l132 350c33 16 63 38 88 66 55 63 81 143 71 228-6 61-32 117-71 160z m-825-368c-36 0-66 30-66 67v200c0 36 30 66 66 66h20c5 0 10 0 14 0v-333h-34z m89 0h-22v334c144 5 296 33 463 88 35 11 72 15 110 10 52-6 100-29 139-63l-401-401c-101 22-197 32-289 32z m427-103c3 0 5-1 7-2 29-8 57-12 85-12 3 0 7 1 10 1l-38-100c-10-25-40-40-65-30-15 5-25 16-30 31-3 10-3 24 2 35l29 77z m61-320c-22-60-90-92-150-68-60 21-92 90-69 150l97 256c10-3 20-6 30-8l-28-75c-9-20-9-40-4-57 7-25 25-45 50-53 10-3 20-5 30-5 35 0 67 22 79 53l44 117c14 3 28 6 42 10l-121-320z m226 426c-23-25-50-45-79-59-3 0-5-1-7-2-23-11-47-18-71-22-1 0-3 0-4 0-14-2-24-2-34-2-26 0-51 5-75 12-3 0-8 2-13 3l-7 2c-32 9-65 18-96 25l385 385c34-38 58-87 64-140 9-75-13-147-63-202z" horiz-adv-x="1000" />

<glyph glyph-name="hotel-2" unicode="&#xe833;" d="M983 850h-500c-10 0-16-7-16-17v-183h-450c-10 0-17-7-17-17v-766c0-10 7-17 17-17h183 100 183 150 100 100 150c10 0 17 7 17 17v966c0 10-7 17-17 17z m-950-233h434v-734h-150v117c0 10-7 17-17 17h-100c-10 0-17-7-17-17v-117h-150v734z m184-734v100h66v-100h-66z m500 0h-67v100h67v-100z m33 0v100h67v-100h-67z m217 0h-117v117c0 10-7 17-17 17h-100-100c-10 0-16-7-16-17v-117h-117v750 184h467v-934z m-867 550h100c10 0 17 7 17 17v100c0 10-7 17-17 17h-100c-10 0-17-7-17-17v-100c0-10 7-17 17-17z m17 100h66v-66h-66v66z m183-100h100c10 0 17 7 17 17v100c0 10-7 17-17 17h-100c-10 0-17-7-17-17v-100c0-10 7-17 17-17z m17 100h66v-66h-66v66z m266-283h100c10 0 17 7 17 17v100c0 10-7 16-17 16h-100c-10 0-16-6-16-16v-100c0-10 6-17 16-17z m17 100h67v-67h-67v67z m183 33c-10 0-16-6-16-16v-100c0-10 6-17 16-17h100c10 0 17 7 17 17v100c0 10-7 16-17 16h-100z m84-100h-67v67h67v-67z m-284-216h100c10 0 17 6 17 16v100c0 10-7 17-17 17h-100c-10 0-16-7-16-17v-100c0-10 6-16 16-16z m17 100h67v-67h-67v67z m283 33h-100c-10 0-16-7-16-17v-100c0-10 6-16 16-16h100c10 0 17 6 17 16v100c0 10-7 17-17 17z m-16-100h-67v67h67v-67z m-767 150h100c10 0 17 7 17 17v100c0 10-7 16-17 16h-100c-10 0-17-6-17-16v-100c0-10 7-17 17-17z m17 100h66v-67h-66v67z m183-100h100c10 0 17 7 17 17v100c0 10-7 16-17 16h-100c-10 0-17-6-17-16v-100c0-10 7-17 17-17z m17 100h66v-67h-66v67z m-117-283c10 0 17 6 17 16v100c0 10-7 17-17 17h-100c-10 0-17-7-17-17v-100c0-10 7-16 17-16h100z m-83 100h66v-67h-66v67z m183-100h100c10 0 17 6 17 16v100c0 10-7 17-17 17h-100c-10 0-17-7-17-17v-100c0-10 7-16 17-16z m17 100h66v-67h-66v67z m283 266h67c10 0 16 7 16 17v100h100v-100c0-10 7-17 17-17h67c10 0 16 7 16 17v300c0 10-6 17-16 17h-67c-10 0-17-7-17-17v-100h-100v100c0 10-6 17-16 17h-67c-10 0-17-7-17-17v-300c0-10 7-17 17-17z m17 300h33v-100c0-10 7-16 17-16h133c10 0 17 6 17 16v100h33v-266h-33v100c0 10-7 16-17 16h-133c-10 0-17-6-17-16v-100h-33v266z" horiz-adv-x="1000" />

<glyph glyph-name="hotel-3" unicode="&#xe834;" d="M433 711l-15-74c-1-6 0-13 7-16 5-5 13-4 18 0l57 41 57-41c3-2 6-4 10-4s6 2 10 4c5 3 8 10 6 16l-15 74 59 43c5 3 6 12 5 18-2 7-9 12-15 12h-74l-28 57c-7 11-25 11-30 0l-28-57h-74c-6 0-13-5-13-12-3-6 0-13 5-18l58-43z m34 40c6 0 11 3 15 10l18 36 18-36c4-7 9-10 15-10h34l-27-20c-5-4-8-10-7-17l9-40-32 23c-3 2-7 4-10 4s-7-2-10-4l-32-23 9 40c1 7-2 13-7 17l-27 20h34z m-234-534h-66c-10 0-17-6-17-16v-100c0-10 7-17 17-17h66c10 0 17 7 17 17v100c0 10-7 16-17 16z m-16-100h-34v67h34v-67z m16-66h-66c-10 0-17-7-17-17v-100c0-10 7-17 17-17h66c10 0 17 7 17 17v100c0 10-7 17-17 17z m-16-100h-34v66h34v-66z m616 266h-66c-10 0-17-6-17-16v-100c0-10 7-17 17-17h66c10 0 17 7 17 17v100c0 10-7 16-17 16z m-16-100h-34v67h34v-67z m16-66h-66c-10 0-17-7-17-17v-100c0-10 7-17 17-17h66c10 0 17 7 17 17v100c0 10-7 17-17 17z m-16-100h-34v66h34v-66z m-434 400h67c10 0 17 6 17 16v134c0 10-7 16-17 16h-67c-10 0-16-6-16-16v-134c0-10 6-16 16-16z m17 133h33v-100h-33v100z m150-133h67c10 0 16 6 16 16v134c0 10-6 16-16 16h-67c-10 0-17-6-17-16v-134c0-10 7-16 17-16z m17 133h33v-100h-33v100z m-17-333h67c10 0 16 6 16 16v134c0 10-6 16-16 16h-67c-10 0-17-6-17-16v-134c0-10 7-16 17-16z m17 133h33v-100h-33v100z m-117-133c10 0 17 6 17 16v134c0 10-7 16-17 16h-67c-10 0-16-6-16-16v-134c0-10 6-16 16-16h67z m-50 133h33v-100h-33v100z m583-400h-50v383c0 10-6 17-16 17h-217v283c0 10-7 17-17 17h-366c-10 0-17-7-17-17v-283h-217c-10 0-16-7-16-17v-383h-50c-10 0-17-7-17-17s7-16 17-16h66 234 133 100 133 234 66c10 0 17 6 17 16s-7 17-17 17z m-883 367h200v-367h-200v367z m233 16v284h334v-284-383h-100v150c0 10-7 17-17 17h-100c-10 0-17-7-17-17v-150h-100v383z m134-383v133h66v-133h-66z m233 367h200v-367h-200v367z" horiz-adv-x="1000" />

<glyph glyph-name="location" unicode="&#xe835;" d="M559 533c0 102-82 184-184 184s-183-82-183-184 82-183 183-183c100 0 184 82 184 183z m-184-150c-83 0-150 67-150 150 0 84 67 150 150 150 82 0 150-66 150-150 0-83-66-150-150-150z m0 267c-65 0-116-52-116-117 0-10 6-16 16-16 9 0 17 6 17 16 0 47 37 84 83 84 10 0 17 6 17 16s-7 17-17 17z m550-333h-133c-10 0-17-7-17-17v-133h-133v133c0 10-7 17-17 17h-6l38 76c50 99 45 214-13 307s-157 150-269 150-211-57-270-150c-56-93-63-208-13-307l268-533c4-7 9-10 15-10 5 0 12 3 14 10l86 172v-165c0-10 7-17 17-17h133c10 0 17 7 17 17v133h133v-133c0-10 7-17 17-17h133c10 0 17 7 17 17v433c0 10-7 17-17 17z m-550-414l-251 505c-45 89-40 192 11 275 52 84 140 134 240 134 99 0 187-50 240-134 52-85 55-186 12-275l-47-91h-88c-10 0-17-7-17-17v-195l-100-202z m534-20h-100v134c0 10-7 16-17 16h-167c-10 0-16-6-16-16v-134h-100v219 181h83 17v-133c0-10 6-17 16-17h167c10 0 17 7 17 17v133h100v-400z" horiz-adv-x="1000" />

<glyph glyph-name="information" unicode="&#xe836;" d="M650 850h-300c-128 0-233-105-233-233v-300c0-129 105-234 233-234h55c15 0 28-13 28-28v-165c0-18 12-33 29-38 3-2 8-2 11-2 14 0 25 7 34 17l101 145c27 40 67 68 114 83 96 32 161 120 161 222v300c0 128-105 233-233 233z m200-535c0-87-55-163-138-190-54-18-99-50-130-95l-104-145c-1-3-5-2-6-2-2 2-5 2-5 7v165c0 33-29 62-62 62h-55c-110 0-200 90-200 200v300c0 110 90 200 200 200h300c110 0 200-90 200-200v-302z m-267-32h-16v250c0 29-22 50-50 50h-67c-28 0-50-21-50-50 0-28 22-50 50-50h17v-200h-17c-28 0-50-21-50-50 0-28 22-50 50-50h133c29 0 50 22 50 50 0 29-21 50-50 50z m0-66h-133c-10 0-17 6-17 16s7 17 17 17h33c10 0 17 7 17 17v233c0 10-7 17-17 17h-33c-10 0-17 6-17 16s7 17 17 17h67c8 0 16-7 16-17v-266c0-10 7-17 17-17h33c10 0 17-7 17-17s-7-16-17-16z m-83 400c37 0 67 30 67 66 0 37-30 67-67 67s-67-30-67-67c0-36 30-66 67-66z m0 100c18 0 33-15 33-34 0-18-15-33-33-33-18 0-33 15-33 33 0 19 15 34 33 34z" horiz-adv-x="1000" />

<glyph glyph-name="luggage-2" unicode="&#xe837;" d="M433 383h-166c-10 0-17-6-17-16v-67c0-10 7-17 17-17h166c10 0 17 7 17 17v67c0 10-7 16-17 16z m-16-66h-134v33h134v-33z m150-167h166c10 0 17 7 17 17v66c0 10-7 17-17 17h-166c-10 0-17-7-17-17v-66c0-10 7-17 17-17z m16 67h134v-34h-134v34z m367-234h-50v517c0 120-97 217-217 217h-50v33c0 18-15 33-33 33h-33c0 37-30 67-67 67s-67-30-67-67h-33c-18 0-33-15-33-33v-33h-50c-120 0-217-97-217-217v-517h-50c-10 0-17-6-17-16 0-10 7-17 17-17h67 25c-5-10-9-21-9-33 0-37 30-67 67-67 37 0 67 30 67 67 0 12-4 23-9 33h194 96 194c-5-10-9-21-9-33 0-37 30-67 67-67 37 0 67 30 67 67 0 12-4 23-9 33h25 67c10 0 17 7 17 17 0 10-7 16-17 16z m-450 834c18 0 33-15 33-34h-66c0 19 15 34 33 34z m-100-67h50 100 50v-33h-200v33z m-200-867c-18 0-33 15-33 34s15 33 33 33c18 0 33-15 33-33s-15-34-33-34z m48 100c-18 0-31 15-31 32v370c0 18 15 32 31 32h35 134 33c18 0 33-15 33-34v-131-237c0-18-15-32-31-32h-204z m52 600h100v-133h-100v133z m300-133h100v-133h-100v133z m-17-167h134 33c18 0 33-15 33-33v-235c0-18-15-32-31-32h-204c-18 0-31 15-31 32v237c0 18 15 31 31 31h35z m250-366c0-19-15-34-33-34-18 0-33 15-33 34s15 33 33 33c18 0 33-15 33-33z m-24 66c5 10 8 20 8 32v235c0 37-30 67-67 67h-17v133h17c10 0 17 7 17 17s-7 16-17 16h-33-134-33c-10 0-17-6-17-16s7-17 17-17h17v-133h-19c-11 0-22-3-31-9v75c0 37-30 67-67 67h-17v133h17c10 0 17 7 17 17s-7 17-17 17h-33-134-33c-10 0-17-7-17-17s7-17 17-17h17v-133h-19c-36 0-65-30-65-65v-370c0-12 3-22 9-32h-59v517c0 102 82 183 184 183h66 234 66c102 0 184-81 184-183v-517h-58z" horiz-adv-x="1000" />

<glyph glyph-name="fast-food" unicode="&#xe838;" d="M967 683h-217v74l108 61c9 5 12 15 7 24s-15 10-23 6l-117-66c-1-1-2-1-2-2-4-3-6-7-6-13v-84h-217c-18 0-33-15-33-33v-67c0-12 7-23 17-29l3-66c-41 8-87 12-137 12-210 0-350-73-350-183v-17c0-18 15-33 33-33h17v-38c-24-7-43-26-48-51-4-18 1-36 13-51 8-11 21-19 35-24v-18c-28-1-50-24-50-52v-31c0-28 22-51 50-52v-50c0-28 22-50 50-50h500 302c26 0 48 22 50 48l31 656c10 6 17 17 17 29v67c0 18-15 33-33 33z m-467-33h467v-67h-467v67z m-417-565v17c11 2 22 7 30 15 9 8 15 20 19 33h51c9-28 34-50 65-50 32 0 59 22 65 50h72c8-28 33-50 65-50 32 0 58 22 65 50h53c4-13 9-25 19-33 8-8 18-13 30-15v-17h-534z m592 134c-8 6-16 10-25 13v35h17c18 0 33 15 33 33v17c0 2 0 4 0 6 0 1 0 1 0 1-1 21-7 41-19 59-1 1-2 3-3 4 17 8 35 13 55 13 65 0 117-52 117-117s-52-116-117-116c-11 0-21 1-33 5-1 19-11 35-25 47z m-642 98c0 88 130 150 317 150 151 0 265-41 303-103 9-15 14-31 14-47v-17h-34-566-34v17z m584-50v-34h-534v34h534z m-575-119c-5 5-9 14-7 25 2 15 18 27 35 27h563c17 0 33-16 34-32-1-17-17-31-35-33-2 0-4 0-6-1-6 1-11 3-16 8-7 5-10 15-10 25 0 10-7 16-17 16h-83c-10 0-17-6-17-16 0-19-15-34-33-34s-33 15-33 34c0 10-7 16-17 16h-100c-10 0-17-6-17-16 0-19-15-34-33-34s-33 15-33 34c0 10-7 16-17 16h-83c-10 0-17-6-17-16 0-10-3-20-10-24-5-6-13-8-22-8-10 0-20 5-26 13z m-9-148v32c0 21 19 20 19 20h15 566 17c10 0 18-9 18-19v-31c0-10-8-19-18-19h-17-566-15c-10 0-19 9-19 17z m50-100v50h534v-50c0-10-7-17-17-17h-500c-10 0-17 7-17 17z m835 0c0-10-8-17-16-17h-255c2 4 2 8 3 12 0 1 0 2 0 3v2 48c22 2 40 15 47 35 3 6 4 12 5 19v31c0 29-24 52-52 52v16c20 5 36 19 44 38 13-4 26-6 39-6 84 0 150 67 152 152 0 83-67 150-150 150-29 0-55-7-79-22-30 29-76 52-134 67l-4 70h432l-32-650z" horiz-adv-x="1000" />

<glyph glyph-name="hotel-sign-1" unicode="&#xe839;" d="M950 567h-197c-63 75-155 116-253 116s-190-41-253-116h-197c-28 0-50-22-50-50v-334c0-28 22-50 50-50h197c63-75 155-116 253-116s190 41 253 116h197c28 0 50 22 50 50v334c0 28-22 50-50 50z m17-384c0-10-7-16-17-16h-202c-5 0-10-4-13-7-58-70-143-110-233-110-92 0-177 40-234 110-3 5-8 7-13 7h-205c-10 0-17 6-17 16v334c0 10 9 16 17 16h205c5 0 10 2 12 7 58 70 143 110 233 110s175-40 232-110c3-5 8-7 13-7h205c10 0 17-6 17-16v-334z m-67 317h-178l-15 18c-52 64-127 99-207 99s-155-35-207-99l-15-18h-178c-18 0-33-15-33-33v-234c0-18 15-33 33-33h178l15-18c52-64 127-99 207-99s157 35 207 99l15 18h178c18 0 33 15 33 33v234c0 18-15 33-33 33z m0-265h-185c-5 0-10-3-13-7l-20-25c-45-55-112-86-182-86s-137 31-180 85l-20 25c-3 5-8 6-13 6h-187v234h187c5 0 10 3 13 6l18 24c45 55 112 86 182 86s137-31 180-85l20-25c3-5 8-6 13-6h187v-232z m-267 282h-66c-10 0-17-7-17-17v-100h-100v100c0 10-7 17-17 17h-66c-10 0-17-7-17-17v-300c0-10 7-17 17-17h66c10 0 17 7 17 17v100h100v-100c0-10 7-17 17-17h66c10 0 17 7 17 17v300c0 10-7 17-17 17z m-16-300h-34v100c0 10-6 16-16 16h-134c-10 0-16-6-16-16v-100h-34v266h34v-100c0-10 6-16 16-16h134c10 0 16 6 16 16v100h34v-266z" horiz-adv-x="1000" />

<glyph glyph-name="hairdryer" unicode="&#xe83a;" d="M997 591c0 4-1 7-1 11 0 0 0 0 0 0-1 4-1 7-2 10 0 1 0 1 0 2-1 3-2 6-2 9 0 1-1 1-1 2 0 2-1 4-1 6-1 3-2 5-2 7 0 1-1 2-1 3-8 27-20 52-35 75 0 1 0 2-1 2-1 2-3 4-4 7-1 1-2 2-3 4-1 1-2 2-2 3-2 2-4 4-5 6-1 1-1 2-2 3-2 2-3 4-5 6-1 0-1 0-1 1 0 0 0 0 0 0-47 54-113 92-187 100-41 5-83 2-123-12-182-58-343-86-498-86h-20c-55 0-100-45-100-100v-200c0-55 45-100 100-100h50 38c105 0 215-14 332-43l-95-254c-29-76 11-165 88-193 18-7 35-10 53-10 60 0 119 37 139 97l132 350c33 16 63 38 87 66 55 63 82 143 72 228z m-32-5c7-65-10-130-48-181-38 51-55 116-48 181 5 45 21 87 48 124 27-35 43-79 48-124z m-864-203c-37 0-67 30-67 67v200c0 36 30 66 67 66h20c5 0 10 0 13 0v-333h-33z m516-103c2 0 5-1 7-2 28-8 57-12 85-12 3 0 6 1 9 1l-37-100c-10-25-40-40-65-30-15 5-25 16-30 31-4 10-4 24 1 35l30 77z m60-320c-21-60-90-92-150-68-60 21-91 90-68 150l97 256c9-3 19-6 29-8l-28-75c-8-20-8-40-3-57 7-25 25-45 50-53 10-3 20-5 30-5 35 0 67 22 78 53l45 117c14 3 28 6 41 10l-121-320z m147 367c-2 0-4-1-7-2-23-11-46-18-70-22-2 0-3 0-5 0-13-2-23-2-33-2-27 0-52 5-75 12-3 0-8 2-13 3l-7 2c-153 44-293 65-425 65h-21v334c144 5 296 33 463 88 35 11 71 15 110 10 59-7 113-36 154-78-33-43-53-92-59-146-10-77 12-153 60-213-21-21-45-39-72-51z m-40 256h-200c-10 0-17-7-17-17 0-10 7-16 17-16h200c10 0 17 6 17 16 0 10-7 17-17 17z m-33-83h-134c-10 0-16-7-16-17s6-17 16-17h134c10 0 16 7 16 17s-6 17-16 17z m-134 133h134c10 0 16 7 16 17s-6 16-16 16h-134c-10 0-16-6-16-16s6-17 16-17z" horiz-adv-x="1000" />

<glyph glyph-name="luggage-5" unicode="&#xe83b;" d="M767 283h-100c0 10-7 17-17 17s-17-7-17-17h-33v470c20 6 33 25 33 47 0 28-21 50-50 50h-166c-29 0-50-22-50-50 0-22 13-41 33-47v-470h-33c0 10-7 17-17 17s-17-7-17-17h-100c-28 0-50-21-50-50v-300c0-28 22-50 50-50h34v-16c0-10 6-17 16-17s17 7 17 17v16h400v-16c0-10 7-17 17-17s16 7 16 17v16h34c28 0 50 22 50 50v300c0 29-22 50-50 50z m-350 534h166c10 0 17-7 17-17s-7-17-17-17h-166c-10 0-17 7-17 17s7 17 17 17z m16-67h134v-467h-134v467z m-200-500h184 166 184c10 0 16-7 16-17v-50h-200-165-201v50c0 10 6 17 16 17z m204-100h131v-15c0-10-8-18-18-18h-95c-10 0-18 8-18 18v15z m330-233h-534c-10 0-16 6-16 16v17h50c10 0 16 7 16 17 0 10-6 16-16 16h-50v34h50c10 0 16 6 16 16s-6 17-16 17h-50v100h185v-15c0-28 23-52 51-52h97c28 0 52 24 50 52v15h183v-217c0-10-6-16-16-16z" horiz-adv-x="1000" />

<glyph glyph-name="menu-1" unicode="&#xe83c;" d="M542 467l-28 73c-2 7-9 10-15 10s-12-3-15-10l-29-73h-88c-7 0-13-5-17-13-3-7 0-14 5-19l75-58-30-88c-1-7 0-14 7-19s15-5 20 0l73 59 74-59c3-1 6-3 10-3s6 2 8 5c7 3 8 12 7 18l-30 89 75 58c5 5 6 12 5 18s-9 12-15 12h-92z m-2-70c-5-5-6-12-5-18l15-47-40 32c-3 1-6 3-10 3s-6-2-10-3l-40-32 17 47c3 6 0 13-5 18l-47 37h52c7 0 13 3 15 10l18 45 19-45c1-7 8-10 15-10h53l-47-37z m177 287h-67v150c0 5-3 12-8 13-5 4-12 4-17 2l-350-167c-7-3-10-10-8-18v-797c0-10 6-17 16-17h434c10 0 17 7 17 17v800c0 10-7 17-17 17z m-100 123v-123h-260l260 123z m83-924h-400v768h334 66v-768z m-83 100h-233c-10 0-17-6-17-16 0-10 7-17 17-17h233c10 0 17 7 17 17 0 10-7 16-17 16z m-67 34c10 0 17 6 17 16s-7 17-17 17h-100c-10 0-16-7-16-17s6-16 16-16h100z" horiz-adv-x="1000" />

<glyph glyph-name="exchange" unicode="&#xe83d;" d="M717 283c156 0 283 127 283 284s-127 283-283 283-284-127-284-283 127-284 284-284z m0 534c138 0 250-112 250-250s-112-250-250-250-250 111-250 250 111 250 250 250z m-434-400c-156 0-283-127-283-284s127-283 283-283 284 127 284 283-127 284-284 284z m0-534c-138 0-250 112-250 250s112 250 250 250 250-111 250-250-111-250-250-250z m684 434c-10 0-17-7-17-17 0-220-180-400-400-400-10 0-17-7-17-17s7-16 17-16c238 0 433 195 433 433 0 10-6 17-16 17z m-934 66c10 0 17 7 17 17 0 220 180 400 400 400 10 0 17 7 17 17s-7 16-17 16c-238 0-433-195-433-433 0-10 6-17 16-17z m667 168v-133c-21 2-39 10-50 22v43c0 10-7 17-17 17s-16-7-16-17v-47c0-1 0-3 0-4v-49c0-10 6-16 16-16s17 6 17 16v16c14-8 31-13 50-15v-17c0-10 7-17 17-17s16 7 16 17v17c52 7 100 44 100 99s-48 93-100 99v134c22-3 39-11 50-22v-44c0-10 7-17 17-17s17 7 17 17v48c0 1 0 2 0 3v49c0 10-7 17-17 17s-17-7-17-17v-15c-14 8-31 13-50 14v18c0 10-6 16-16 16s-17-6-17-16v-18c-51-7-100-43-100-99 0-56 49-92 100-99z m100-68c0-36-32-59-67-65v131c35-7 67-31 67-66z m-100 232v-130c-34 6-67 29-67 65 0 35 33 59 67 65z m-283-665c-10 0-17-7-17-17 0-23-10-33-33-33h-134c12 17 17 37 17 50v83h50c10 0 17 7 17 17s-7 17-17 17h-50v83c0 28 22 50 50 50 28 0 50-22 50-50 0-10 7-17 17-17s16 7 16 17c0 47-36 83-83 83-47 0-83-36-83-83v-83h-50c-10 0-17-7-17-17s7-17 17-17h50v-83c0-5-4-50-50-50-10 0-17-7-17-17s7-16 17-16h200c41 0 66 25 66 66 0 10-6 17-16 17z" horiz-adv-x="1000" />

<glyph glyph-name="hotel-sign" unicode="&#xe83e;" d="M908 850c-28 0-53-13-70-33h-821c-10 0-17-7-17-17v-83c0-10 7-17 17-17h133v-83h-83c-37 0-67-30-67-67v-633c0-37 30-67 67-67h750c36 0 66 30 66 67v633c0 37-30 67-66 67h-67v83h88c17-20 42-33 70-33 50 0 92 41 92 91 0 50-42 92-92 92z m-58-300v-633c0-19-15-34-33-34h-750c-19 0-34 15-34 34v633c0 18 15 33 34 33h750c18 0 33-15 33-33z m-133 67h-534v83h534v-83z m103 116h-787v50h787c0-1 0-2-1-3-1-6-2-12-2-18 0-1 0-3 0-4s0-2 0-3c0-6 1-12 2-18 1-1 1-2 1-4z m88-33c-19 0-36 10-47 24 0 1 0 2-1 3-1 1-2 3-3 4-3 7-6 14-7 21 0 0 0 1 0 1 0 1 0 1 0 2 0 1 0 2 0 3 0 2 0 3 0 4 0 1 0 1 0 2 0 0 0 0 0 1 4 29 29 52 58 52 32 0 59-27 59-59 0-31-27-58-59-58z m-691-783h100c10 0 16 6 16 16v234h234v-234c0-10 6-16 16-16h100c10 0 17 6 17 16v600c0 10-7 17-17 17h-100c-10 0-16-7-16-17v-233h-234v233c0 10-6 17-16 17h-100c-10 0-17-7-17-17v-600c0-10 7-16 17-16z m16 600h67v-234c0-10 7-16 17-16h266c10 0 17 6 17 16v234h67v-567h-67v233c0 10-7 17-17 17h-266c-10 0-17-7-17-17v-233h-67v567z" horiz-adv-x="1000" />

<glyph glyph-name="021-newspaper" unicode="&#xe83f;" d="M984 847h-719c-9 0-16-7-16-16v-63h-116c-5 0-9-2-12-5-3-4-5-8-4-13l6-45h-107c-5 0-10-2-13-6-3-4-4-9-2-14l239-820c2-7 8-12 15-12 2 0 729 0 729 0 9 0 16 7 16 16v962c0 9-7 16-16 16z m-735-110v-729l-98 729h98l0 0z m-122-63l79-580-169 580h90z m842-789h-688v930h688v-930h0z m-413 806h-250v71h250l0-71 0 0z m389 0h-250v71h250l0-71 0 0z m-373 35c0 30 24 53 53 53 29 0 52-23 52-53 0-29-23-52-52-52-29 0-53 23-53 52z m336-383h-213v239h213l0-239 0 0z m-315 204h-262v26h262v-26z m-262-75h262v-26h-262v26z m3-102h262v-27h-262v27z m-3-104h577v-26h-577v26z m0-104h577v-26h-577v26z m0-102h577v-26h-577v26z" horiz-adv-x="1000" />

<glyph glyph-name="menu" unicode="&#xe840;" d="M950 850h-450-450c-18 0-33-15-33-33v-934c0-18 15-33 33-33h450 450c18 0 33 15 33 33v934c0 18-15 33-33 33z m-900-33h433v-934h-433v934z m900-934h-433v934h433v-934z m-802 734h237c10 0 17 6 17 16 0 75-60 134-135 134-75 0-135-60-135-134 0-10 6-16 16-16z m119 116c50 0 91-35 100-83h-200c6 48 48 83 100 83z m-134-183h267c10 0 17 7 17 17 0 10-7 16-17 16h-267c-10 0-16-6-16-16 0-10 6-17 16-17z m150-100h-183c-10 0-17-7-17-17 0-10 7-16 17-16h183c10 0 17 6 17 16 0 10-7 17-17 17z m150 0h-50c-10 0-16-7-16-17 0-10 6-16 16-16h50c10 0 17 6 17 16 0 10-7 17-17 17z m-150-150h-183c-10 0-17-7-17-17s7-16 17-16h183c10 0 17 6 17 16s-7 17-17 17z m150 0h-50c-10 0-16-7-16-17s6-16 16-16h50c10 0 17 6 17 16s-7 17-17 17z m-150-150h-183c-10 0-17-7-17-17s7-16 17-16h183c10 0 17 6 17 16s-7 17-17 17z m150 0h-50c-10 0-16-7-16-17s6-16 16-16h50c10 0 17 6 17 16s-7 17-17 17z m-150-150h-183c-10 0-17-7-17-17s7-16 17-16h183c10 0 17 6 17 16s-7 17-17 17z m150 0h-50c-10 0-16-7-16-17s6-16 16-16h50c10 0 17 6 17 16s-7 17-17 17z m134 417h183c10 0 17 6 17 16 0 10-7 17-17 17h-183c-10 0-17-7-17-17 0-10 7-16 17-16z m283 0h50c10 0 17 6 17 16 0 10-7 17-17 17h-50c-10 0-17-7-17-17 0-10 7-16 17-16z m-283-150h183c10 0 17 6 17 16s-7 17-17 17h-183c-10 0-17-7-17-17s7-16 17-16z m283 0h50c10 0 17 6 17 16s-7 17-17 17h-50c-10 0-17-7-17-17s7-16 17-16z m-283 300h183c10 0 17 6 17 16s-7 17-17 17h-183c-10 0-17-7-17-17s7-16 17-16z m283 0h50c10 0 17 6 17 16s-7 17-17 17h-50c-10 0-17-7-17-17s7-16 17-16z m-283 150h183c10 0 17 6 17 16s-7 17-17 17h-183c-10 0-17-7-17-17s7-16 17-16z m283 0h50c10 0 17 6 17 16s-7 17-17 17h-50c-10 0-17-7-17-17s7-16 17-16z m-283-600h183c10 0 17 6 17 16s-7 17-17 17h-183c-10 0-17-7-17-17s7-16 17-16z m283 0h50c10 0 17 6 17 16s-7 17-17 17h-50c-10 0-17-7-17-17s7-16 17-16z m-283-150h183c10 0 17 6 17 16s-7 17-17 17h-183c-10 0-17-7-17-17s7-16 17-16z m283 0h50c10 0 17 6 17 16s-7 17-17 17h-50c-10 0-17-7-17-17s7-16 17-16z" horiz-adv-x="1000" />

<glyph glyph-name="028-bathtub" unicode="&#xe841;" d="M950 408h-17v234c0 27-22 50-50 50s-50-23-50-50v-17h-83c-28 0-50-22-50-50v-100h100v50h33v-117h-150v50h-233v-50h-350v367c0 9 8 17 17 17h83c9 0 17-8 17-17v-33h-34c-27 0-50-23-50-50s23-50 50-50h100c28 0 50 22 50 50s-22 50-50 50h-33v33c0 28-22 50-50 50h-83c-28 0-50-22-50-50v-367h-17c-28 0-50-22-50-50v-33c0-28 22-50 50-50h17v-183c0-64 40-120 100-142v-42c0-18 15-33 33-33h33c19 0 34 15 34 33v34h483v-34c0-18 15-33 33-33h34c18 0 33 15 33 33v49c51 26 83 78 83 135v183h17c28 0 50 22 50 50v33c0 28-22 50-50 50z m-667 300c10 0 17-7 17-16s-7-17-17-17h-100c-9 0-16 8-16 17s7 16 16 16h100z m584-66c0 9 7 16 16 16s17-7 17-16v-17h-33v17z m-100-134h-34v17h34v-17z m33 50h-67v17c0 9 8 17 17 17h150v-34h-100z m100-33v-117h-33v117h33z m-417-100h167v-250h-167v250z m-433-117c-9 0-17 8-17 17v33c0 10 8 17 17 17h400v-67h-400z m183-400h-33v34h33v-34z m584 0h-34v34h34v-34z m83 184c0-65-52-117-117-117h-566c-65 0-117 52-117 117v183h350v-167h33v34h34v-34h33v34h33v-34h34v34h33v-34h33v167h217v-183z m67 233c0-9-8-17-17-17h-267v67h267c9 0 17-7 17-17v-33z" horiz-adv-x="1000" />

<glyph glyph-name="luggage-4" unicode="&#xe842;" d="M700 517h-33c0 10-7 16-17 16s-17-6-17-16h-33v236c20 6 33 25 33 47 0 28-21 50-50 50h-166c-29 0-50-22-50-50 0-22 14-40 33-47v-236h-33c0 10-7 16-17 16s-17-6-17-16h-33c-28 0-50-22-50-50v-534c0-28 22-50 50-50h50v-16c0-10 7-17 17-17s16 7 16 17v16h234v-16c0-10 6-17 16-17s17 7 17 17v16h50c28 0 50 22 50 50v534c0 28-22 50-50 50z m-283 300h166c10 0 17-7 17-17s-7-17-17-17h-166c-10 0-17 7-17 17s8 17 17 17z m16-67h134v-233h-134v233z m-133-267h117 166 117c10 0 17-6 17-16v-50h-134-165-135v50c0 10 7 16 17 16z m135-100h133v-15c0-10-8-18-18-18h-97c-10 0-18 8-18 18v15z m265-466h-400c-10 0-17 6-17 16v17h50c10 0 17 7 17 17 0 10-7 16-17 16h-50v34h50c10 0 17 6 17 16s-7 17-17 17h-50v333h119v-15c0-28 23-51 51-51h97c27 0 50 23 50 51v15h117v-450c0-10-7-16-17-16z" horiz-adv-x="1000" />

<glyph glyph-name="bunk" unicode="&#xe843;" d="M983-117h-16v100 134 383 133 200c0 10-7 17-17 17s-17-7-17-17v-183h-38c3 7 5 15 5 23v20c0 32-25 57-57 57h-420c-31 0-56-25-56-57v-20c0-8 1-16 5-23h-44c4 7 5 15 5 23v20c0 32-25 57-56 57h-120c-32 0-57-25-57-57v-20c0-8 2-16 5-23h-38v183c0 10-7 17-17 17s-17-7-17-17v-200-133-383-134-100h-16c-10 0-17-6-17-16s7-17 17-17h566 234 166c10 0 17 7 17 17s-7 16-17 16z m-916 600h500v-250h-144c-31 0-56-25-56-56v-20c0-9 1-17 5-24h-44c4 7 5 15 5 24v20c0 31-25 56-56 56h-120c-32 0-57-25-57-56v-20c0-9 2-17 5-24h-38v350z m733 134v-50h-200v50h200z m-400-460v20c0 13 10 23 23 23v0h144v-67h-144c-13 0-23 10-23 24z m467 0c0-14-10-24-24-24h-10v67h10c14 0 24-10 24-23v-20z m-67 176v-33h-200v33h200z m-200 34v33h200v-33h-200z m200 66h-200v34h200v-34z m-200-166h200v-34h-200v34z m200-67v-33h-200v33h200z m-200-83v16h200v-16-17h-200v17z m200 383h-200v33h200v-33z m-200-433h200v-34h-200v34z m233 33h10 90v-100h-100v100z m100 33h-38c3 7 5 15 5 24v20c0 31-25 56-57 56h-10v250h100v-350z m-800 24v20c0 13 10 23 24 23h120c13 0 23-10 23-23v-20c0-14-10-24-23-24h-120c-14 0-24 10-24 24z m-66-57h90 120 146 144v-100h-500v100z m533-117v17h200v-17-16h-200v16z m233-16h100v-84h-100v84z m100 550h-100v100h10 90v-100z m-533 156v20c0 14 10 24 23 24h420c14 0 24-10 24-24v-20c0-13-10-23-24-23h-26-234-160c-13 0-23 10-23 23z m-267 0v20c0 14 10 24 24 24h120c13 0 23-10 23-24v-20c0-13-10-23-23-23h-120c-14 0-24 10-24 23z m24-56h120 146 144v-100h-500v100h90z m-90-650h500v-84h-500v84z m533-84v50h200v-50h-200z" horiz-adv-x="1000" />

<glyph glyph-name="luggage-1" unicode="&#xe844;" d="M950-17h-50v517c0 120-97 217-217 217h-50v33c0 18-15 33-33 33h-33c0 37-30 67-67 67s-67-30-67-67h-33c-18 0-33-15-33-33v-33h-50c-120 0-217-97-217-217v-517h-50c-10 0-17-6-17-16 0-10 7-17 17-17h67 25c-5-10-9-21-9-33 0-37 30-67 67-67 37 0 67 30 67 67 0 12-4 23-9 33h9 233 83 159c-5-10-9-21-9-33 0-37 30-67 67-67 37 0 67 30 67 67 0 12-4 23-9 33h25 67c10 0 17 7 17 17 0 10-7 16-17 16z m-450 834c18 0 33-15 33-34h-66c0 19 15 34 33 34z m-100-67h50 100 50v-33h-200v33z m-33-283h-65v40c0 5 5 10 10 10h45c5 0 10-5 10-10v-40z m-84-34h100 5l-30-50h-48l-30 50h3z m-24-31l26-44c3-5 8-8 15-8h67c6 0 11 3 15 8l24 42 24-167h-163-30l22 169z m-41-202h30c-6-23-25-42-48-48v48h18z m64 0h168 35c7-42 40-75 82-82v-53c-42-7-75-40-82-82h-203c-7 42-40 75-82 82v53c42 7 75 40 82 82z m285-48c-24 6-42 25-49 48h49v-48z m-367-120c23-7 42-25 48-49h-48v49z m33-115c0-19-15-34-33-34-18 0-33 15-33 34s15 33 33 33c18 0 33-15 33-33z m334 115v-49h-49c7 24 25 42 49 49z m33 18v83 84c0 10-7 16-17 16h-50v152c0 18 15 32 32 32h35 133 34c18 0 33-15 33-34v-368c0-18-15-32-32-32h-168v67z m17 533h100v-133h-100v133z m216-666c0-19-15-34-33-34-18 0-33 15-33 34s15 33 33 33c18 0 33-15 33-33z m-8 66c6 10 8 20 8 32v368c0 37-30 67-66 67h-17v133h17c10 0 16 7 16 17s-6 17-16 17h-34-133-33c-10 0-17-7-17-17s7-17 17-17h16v-133h-18c-37 0-65-30-65-65v-152h-35l-31 215c1 3 0 7-2 10-3 5-8 8-14 9 0 0-1 0-1 0 0 0 0 0 0 0h-19v40c0 23-18 43-43 43h-45c-23 0-43-18-43-43v-40h-17c0 0 0 0 0 0-1 0-1 0-2 0-6-1-10-4-13-9-2-3-3-7-2-11l-29-214h-21c-10 0-16-6-16-16v-84-83-67h-34v517c0 102 82 183 184 183h66 234 66c102 0 184-81 184-183v-517h-42z m-75 400h-167c-10 0-16-6-16-16v-67c0-10 6-17 16-17h167c10 0 17 7 17 17v67c0 10-7 16-17 16z m-17-66h-133v33h133v-33z" horiz-adv-x="1000" />

<glyph glyph-name="hotel-sign-4" unicode="&#xe845;" d="M683 417h-100c-10 0-16-7-16-17v-167h-134v167c0 10-6 17-16 17h-100c-10 0-17-7-17-17v-467c0-10 7-16 17-16h100c10 0 16 6 16 16v167h134v-167c0-10 6-16 16-16h100c10 0 17 6 17 16v467c0 10-7 17-17 17z m-16-467h-67v167c0 10-7 16-17 16h-166c-10 0-17-6-17-16v-167h-67v433h67v-166c0-10 7-17 17-17h166c10 0 17 7 17 17v166h67v-433z m266 900h-866c-37 0-67-30-67-67v-866c0-37 30-67 67-67h866c37 0 67 30 67 67v866c0 37-30 67-67 67z m34-933c0-19-15-34-34-34h-866c-19 0-34 15-34 34v866c0 19 15 34 34 34h866c19 0 34-15 34-34v-866z m-537 693l-30-88c-2-7 0-14 7-19 6-5 15-5 20 0l73 59 73-59c4-1 7-3 10-3 4 0 7 2 9 3 6 4 8 12 6 19l-30 88 75 60c5 5 7 12 5 18-1 7-8 12-15 12h-88l-30 73c-2 7-8 10-15 10s-13-5-17-10l-28-73h-88c-7 0-14-5-17-12-3-6 0-13 5-18l75-60z m37 57c6 0 13 3 15 10l18 45 18-45c2-7 9-10 15-10h54l-47-37c-5-5-7-12-5-18l15-47-40 32c-3 1-7 3-10 3s-7-2-10-3l-40-32 17 47c3 6 0 13-5 18l-47 37h52z m-199-89l75 59c5 5 7 11 5 18-1 7-8 12-15 12h-90l-28 73c-2 7-8 10-15 10s-13-3-17-10l-28-73h-88c-7 0-14-5-17-14-3-6 0-13 5-18l75-58-30-89c-2-6 0-13 7-18 6-5 15-5 20 0l73 58 73-58c4-2 7-3 10-3s7 1 9 5c6 3 8 11 6 18l-30 88z m-58-15c-3 2-7 4-10 4-3 0-7-2-10-4l-40-31 17 46c1 7 0 14-5 19l-47 36h52c6 0 13 4 15 10l18 45 18-45c2-6 9-10 15-10h54l-47-36c-5-5-7-12-5-19l15-46-40 31z m723 104h-90l-28 73c-2 7-8 10-15 10-7 0-13-3-18-12l-29-73h-88c-7 0-13-5-15-12-3-6 0-13 5-18l75-58-30-89c-2-6 0-13 7-18 6-5 15-5 20 0l73 58 73-58c4-2 7-3 10-3 4 0 7 1 9 5 6 3 8 11 6 18l-30 88 75 59c5 5 7 11 5 18-1 7-8 12-15 12z m-93-70c-5-5-7-12-5-19l15-46-40 31c-3 2-7 4-10 4-3 0-7-2-10-4l-40-31 17 46c3 7 0 14-5 19l-47 36h52c6 0 13 4 15 10l18 45 18-45c2-6 9-10 15-10h54l-47-36z" horiz-adv-x="1000" />

<glyph glyph-name="hotel-4" unicode="&#xe846;" d="M267 711l-15-74c-2-6 0-13 6-16 5-5 14-4 19 0l56 41 57-41c3-2 7-4 10-4 3 0 7 2 10 4 5 3 8 10 7 16l-15 74 58 43c5 3 7 12 5 18s-8 12-15 12h-73l-29 57c-5 11-25 11-30 0l-28-57h-73c-7 0-14-5-14-12-3-6 0-13 5-18l59-43z m33 40c7 0 12 3 15 10l18 36 19-36c3-7 8-10 15-10h33l-27-20c-5-4-8-10-6-17l8-40-32 23c-3 2-6 4-10 4s-6-2-10-4l-31-23 8 40c2 7-2 13-7 17l-26 20h33z m300-40l-15-74c-2-6 0-13 7-16 5-5 13-4 18 0l57 41 56-41c4-2 7-4 10-4s7 2 10 4c5 3 9 10 7 16l-15 74 58 43c5 3 7 12 5 18s-8 12-15 12h-73l-28 57c-7 11-25 11-30 0l-29-57h-73c-7 0-13-5-13-12-4-6 0-13 5-18l58-43z m33 40c7 0 12 3 15 10l19 36 18-36c3-7 8-10 15-10h33l-26-20c-5-4-9-10-7-17l8-40-31 23c-4 2-7 4-10 4-4 0-7-2-10-4l-32-23 8 40c2 7-1 13-6 17l-27 20h33z m-400-534h-66c-10 0-17-6-17-16v-100c0-10 7-17 17-17h66c10 0 17 7 17 17v100c0 10-7 16-17 16z m-16-100h-34v67h34v-67z m16-66h-66c-10 0-17-7-17-17v-100c0-10 7-17 17-17h66c10 0 17 7 17 17v100c0 10-7 17-17 17z m-16-100h-34v66h34v-66z m616 266h-66c-10 0-17-6-17-16v-100c0-10 7-17 17-17h66c10 0 17 7 17 17v100c0 10-7 16-17 16z m-16-100h-34v67h34v-67z m16-66h-66c-10 0-17-7-17-17v-100c0-10 7-17 17-17h66c10 0 17 7 17 17v100c0 10-7 17-17 17z m-16-100h-34v66h34v-66z m-434 400h67c10 0 17 6 17 16v134c0 10-7 16-17 16h-67c-10 0-16-6-16-16v-134c0-10 6-16 16-16z m17 133h33v-100h-33v100z m150-133h67c10 0 16 6 16 16v134c0 10-6 16-16 16h-67c-10 0-17-6-17-16v-134c0-10 7-16 17-16z m17 133h33v-100h-33v100z m-17-333h67c10 0 16 6 16 16v134c0 10-6 16-16 16h-67c-10 0-17-6-17-16v-134c0-10 7-16 17-16z m17 133h33v-100h-33v100z m-117-133c10 0 17 6 17 16v134c0 10-7 16-17 16h-67c-10 0-16-6-16-16v-134c0-10 6-16 16-16h67z m-50 133h33v-100h-33v100z m583-400h-50v383c0 10-6 17-16 17h-217v283c0 10-7 17-17 17h-366c-10 0-17-7-17-17v-283h-217c-10 0-16-7-16-17v-383h-50c-10 0-17-7-17-17s7-16 17-16h66 234 133 100 133 234 66c10 0 17 6 17 16s-7 17-17 17z m-883 367h200v-367h-200v367z m233 16v284h334v-284-383h-100v150c0 10-7 17-17 17h-100c-10 0-17-7-17-17v-150h-100v383z m134-383v133h66v-133h-66z m233 367h200v-367h-200v367z" horiz-adv-x="1000" />

<glyph glyph-name="menu-4" unicode="&#xe847;" d="M717 684h-67v150c0 5-3 12-8 13-5 4-12 4-17 2l-350-167c-7-3-10-10-8-18v-797c0-10 6-17 16-17h434c10 0 17 7 17 17v800c0 10-7 17-17 17z m-100 123v-123h-260l260 123z m83-924h-400v768h334 66v-768z m-83 100h-233c-10 0-17-6-17-16 0-10 7-17 17-17h233c10 0 17 7 17 17 0 10-7 16-17 16z m-67 34c10 0 17 6 17 16s-7 17-17 17h-100c-10 0-16-7-16-17s6-16 16-16h100z m67 417c0 25-13 46-33 58 0 3 0 5 0 8 0 20-15 29-25 34-4 3-9 5-10 8-20 32-42 65-69 57-25-7-30-52-30-85-20-7-33-25-33-47v-2c-28-8-50-33-50-65 0-8 2-16 5-25-13-10-22-25-22-41 0-6 1-12 3-17h-3c-10 0-16-7-16-17s6-16 16-16h3l26-127c3-23 25-40 48-40h147c23 0 43 17 48 40l26 127h2c10 0 17 6 17 16s-7 17-17 17h-16c10 14 16 31 16 50 0 27-13 52-33 67z m-218-84c6 0 11 5 15 12 1 5 1 12-4 17s-8 13-8 21c0 19 13 34 33 34 0 0 14 1 17 6 3 7 3 14 0 19 0 3-2 5-2 8 0 10 7 17 17 17 5 0 8 1 12 6 3 4 5 7 5 12 0 25 1 53 6 63 5-3 15-13 30-40 7-10 17-16 24-20 1-1 6-3 6-5 0-3 0-6-1-10-4-5-4-10-2-15s7-8 12-10c15-3 25-16 25-31 0-4 0-5 0-7-2-7 1-13 8-17 15-8 25-25 25-43 0-28-22-50-50-50h-167c-10 0-16 7-16 17 0 8 6 15 15 16z m190-186c-2-9-9-14-17-14h-145c-8 0-15 5-17 14l-23 120h13 167 45l-23-120z m-84 258c4-3 7-5 12-5s8 2 12 5c6 7 6 17 0 23l-17 17c-7 7-17 7-23 0s-7-17 0-23l16-17z m0-43c-6-7-6-17 0-24l17-16c3-4 7-5 12-5s8 1 11 5c7 6 7 16 0 23l-16 17c-7 6-17 6-24 0z m-55-12c10 0 17 7 17 17s-7 16-17 16c-10 0-16-6-16-16s6-17 16-17z" horiz-adv-x="1000" />

<glyph glyph-name="monitor" unicode="&#xe848;" d="M925 817h-850c-42 0-75-34-75-75v-509-75c0-41 33-75 75-75h320l-25-100h-3c-47 0-84-36-84-83 0-10 7-17 17-17h400c10 0 17 7 17 17 0 47-37 83-84 83h-3l-25 100h320c42 0 75 34 75 75v75 509c0 41-33 75-75 75z m-892-75c0 23 19 41 42 41h850c23 0 42-18 42-41v-492h-934v492z m649-825h-362c7 20 25 33 47 33h16 234 18c22 0 40-13 47-33z m-87 66h-190l25 100h140l25-100z m372 175c0-23-19-41-42-41h-342-166-342c-23 0-42 18-42 41v59h934v-59z m-717 485c-7-6-7-16 0-23 7-7 17-7 23 0 125 125 329 125 454 0 3-3 6-5 11-5 5 0 9 2 12 5 7 7 7 17 0 23-137 139-362 139-500 0z m250 5c-68 0-132-26-180-75-7-6-7-16 0-23 7-7 17-7 23 0 42 42 97 65 157 65 60 0 115-23 157-65 3-3 6-5 11-5 5 0 9 2 12 5 7 7 7 17 0 23-48 49-112 75-180 75z m-110-145c-7-6-7-16 0-23 3-3 7-5 12-5s8 2 11 5c49 48 125 48 174 0 6-7 16-7 23 0 7 7 7 17 0 23-60 60-160 60-220 0z m110-53c-47 0-83-37-83-83 0-47 36-84 83-84s83 37 83 84c0 46-36 83-83 83z m0-133c-28 0-50 21-50 50 0 28 22 50 50 50 28 0 50-22 50-50 0-29-22-50-50-50z" horiz-adv-x="1000" />

<glyph glyph-name="luggage" unicode="&#xe849;" d="M950-17h-50v517c0 120-97 217-217 217h-50v33c0 18-15 33-33 33h-33c0 37-30 67-67 67s-67-30-67-67h-33c-18 0-33-15-33-33v-33h-50c-120 0-217-97-217-217v-517h-50c-10 0-17-6-17-16 0-10 7-17 17-17h67 25c-5-10-9-21-9-33 0-37 30-67 67-67 37 0 67 30 67 67 0 12-4 23-9 33h242 242c-5-10-9-21-9-33 0-37 30-67 67-67 37 0 67 30 67 67 0 12-4 23-9 33h25 67c10 0 17 7 17 17 0 10-7 16-17 16z m-450 834c18 0 33-15 33-34h-66c0 19 15 34 33 34z m-100-67h50 100 50v-33h-200v33z m-117-317h134 16v-100h-166v100h16z m20 34c7 20 27 33 49 33s40-13 46-33h-95z m-53-167h200 33v-67-66-34h-266v167h33z m300 83c0 55 45 100 100 100 55 0 100-45 100-100s-45-100-100-100c-55 0-100 45-100 100z m233-200h-266v50c0 10 6 17 16 17h234c10 0 16-7 16-17v-50z m-566-83h33v-17c0-10 7-16 17-16s16 6 16 16v17h200v-117h-266v117z m16-183c0-19-15-34-33-34-18 0-33 15-33 34s15 33 33 33c18 0 33-15 33-33z m284 200v33h200v-17c0-10 6-16 16-16s17 6 17 16v17h33v-167h-266v134z m316-200c0-19-15-34-33-34-18 0-33 15-33 34s15 33 33 33c18 0 33-15 33-33z m-16 66v184 66c0 29-22 50-50 50h-29c28 25 45 61 45 100 0 74-60 134-133 134-73 0-133-60-133-134 0-39 17-75 45-100h-29c-6 0-11-1-16-2v36c0 10-7 16-17 16h-33v117c0 10-7 17-17 17h-18c-8 38-41 66-82 66-41 0-74-28-82-66h-18c-10 0-17-7-17-17v-117h-33c-10 0-17-6-17-16v-200-134h-50v517c0 102 82 183 184 183h66 234 66c102 0 184-81 184-183v-517h-50z" horiz-adv-x="1000" />

<glyph glyph-name="menu-5" unicode="&#xe84a;" d="M734 684h-84v150c0 5-3 12-6 13-5 4-12 4-17 2l-364-165c-4-1-7-3-10-6-3-4-4-9-3-14v-797c0-10 7-17 17-17h467c10 0 16 7 16 17v800c0 10-6 17-16 17z m-117 123v-123h-273l273 123z m100-924h-434v768h351 83v-768z m-83 100h-267c-10 0-17-6-17-16 0-10 7-17 17-17h267c10 0 16 7 16 17 0 10-6 16-16 16z m-67 34c10 0 17 6 17 16s-7 17-17 17h-133c-10 0-17-7-17-17s7-16 17-16h133z m42 423c-5 0-9 2-12 5l-5 5c-7 7-7 17-2 22l37 33c7 7 8 17 2 24s-17 8-24 1l-38-35c-16-16-17-42-6-60l-61-61v76c0 29-20 52-48 55l-100 12c-7 0-14-3-17-10-3-5-2-13 3-18l101-100c0 0 0 0 0 0l38-39-105-105c-7-6-7-16 0-23 3-3 7-5 12-5s8 2 11 5l105 105 105-105c4-3 7-5 12-5s8 2 12 5c6 7 6 17 0 23l-105 105 61 62c7-5 15-7 24-7 15 0 26 5 35 17l35 35c6 7 6 17 0 23s-17 7-24 0l-35-35c-3-3-6-5-11-5z m-162 30c12-1 20-10 20-21v-42l-70 70 50-7z" horiz-adv-x="1000" />

<glyph glyph-name="030-shower-4" unicode="&#xe84b;" d="M355-14v153c0 8-7 15-15 15-8 0-15-7-15-15v-154c-7-1-14-3-21-6-8-3-12-11-9-19 3-7 12-11 20-8 47 19 99-16 99-67-1 0 0-6-4-6-22 0-116 0-137 0-4 0-4 6-4 6 0 12 4 25 10 35 4 7 1 16-6 20-7 4-16 2-20-5-14-25-13-51-13-52 0-18 15-33 33-33h137c18 0 33 15 33 33v2c0 52-39 94-88 101z m377 660c-2 20-8 38-19 55-5 7-14 8-21 4s-8-14-4-20c7-11 12-22 14-34h-178c10 57 72 91 126 66 8-3 16 0 20 7s0 16-8 20c-13 6-27 9-42 10-22 56-77 96-142 96-84 0-153-69-153-153v-499c0-8 7-15 15-15 8 0 15 7 15 15v499c0 68 55 124 123 124 49 0 91-28 111-69-51-10-90-53-95-106-17-7-29-23-29-43 0-26 22-48 48-48 24 0 170 0 199 0 13 0 25 5 34 14 9 9 14 21 14 34 0 19-11 36-28 43z m-9-58c-3-2-7-3-11-3-206 1-201-4-210 3-13 10-8 30 8 33 2 0 202 0 205 0 16-3 22-23 8-33z" horiz-adv-x="1000" />

</font>
</defs>
</svg>
